<svg version="1.1" id="Layer_1" xmlns="http://www.w3.org/2000/svg" xmlns:xlink="http://www.w3.org/1999/xlink" x="0px" y="0px"
	 width="100%" viewBox="0 0 500 500" enable-background="new 0 0 500 500" xml:space="preserve">
<path fill="#000000" opacity="1.000000" stroke="none" 
	d="
M334.000000,501.000000 
	C222.666687,501.000000 111.833389,501.000000 1.000059,501.000000 
	C1.000040,334.333405 1.000040,167.666794 1.000020,1.000149 
	C167.666565,1.000099 334.333130,1.000099 500.999756,1.000050 
	C500.999847,167.666519 500.999847,334.333038 500.999939,500.999786 
	C445.500000,501.000000 390.000000,501.000000 334.000000,501.000000 
M429.771637,124.712395 
	C429.796112,127.839760 429.820587,130.967133 429.923187,134.734634 
	C429.981659,135.159851 430.040131,135.585052 430.016632,136.878845 
	C430.630432,140.892227 431.244202,144.905609 431.280914,149.235474 
	C430.174408,150.865097 429.067932,152.494736 427.336884,153.824585 
	C426.809296,152.593994 426.281708,151.363403 425.628723,149.404434 
	C425.260712,147.988541 425.331207,146.011230 424.415771,145.296234 
	C423.222626,144.364349 420.434235,143.565521 419.742340,144.213959 
	C415.531097,148.160797 411.624237,150.068481 407.262177,144.584488 
	C407.213257,144.522980 406.750854,144.790405 406.328369,144.968979 
	C407.594757,148.980606 408.865417,153.005905 410.044312,157.778488 
	C410.084106,158.527710 410.123901,159.276932 410.027252,160.887405 
	C410.075470,162.917892 410.123718,164.948380 410.024628,167.593491 
	C409.998474,168.014023 409.972290,168.434540 409.354584,169.220840 
	C409.278748,170.128006 409.202881,171.035187 408.982422,172.591309 
	C408.940277,173.032501 408.898132,173.473679 408.263397,174.394760 
	C408.830414,176.973297 409.397400,179.551834 409.987518,182.873260 
	C410.984558,184.953812 411.981567,187.034363 412.731750,189.808960 
	C412.500122,190.233597 412.147797,190.633591 412.055267,191.086639 
	C410.981750,196.343094 409.947418,201.607544 408.251953,207.175568 
	C408.196533,209.114883 408.141144,211.054214 408.084595,213.580750 
	C408.421387,214.056320 408.758179,214.531891 409.020935,215.718567 
	C409.635010,217.170303 410.249084,218.622025 411.226959,220.681564 
	C416.408875,227.911026 415.734039,237.831131 408.563904,241.324020 
	C410.680206,246.167755 412.811401,251.045532 414.495544,256.445038 
	C413.381561,258.984863 412.267578,261.524689 411.029846,264.864624 
	C412.082458,269.211609 413.135071,273.558624 413.230896,277.987000 
	C302.347748,277.990814 191.464600,277.993347 80.581451,278.008148 
	C78.423477,278.008453 76.265511,278.153839 73.271049,278.251068 
	C71.133278,277.827637 68.995506,277.404205 66.936028,276.239441 
	C66.510841,275.583954 66.232071,274.570526 65.638145,274.327606 
	C58.588367,271.444214 51.491604,268.675720 42.970448,265.309509 
	C44.491005,267.776245 45.208458,268.940125 46.084961,270.608978 
	C46.388641,270.764771 46.692322,270.920563 46.970478,271.009583 
	C46.970478,271.009583 46.905144,271.038605 46.954365,271.473694 
	C46.954365,271.473694 46.923332,271.910431 46.173565,271.977570 
	C41.288082,269.927307 36.402603,267.877045 31.517120,265.826782 
	C31.292864,266.103363 31.068607,266.379944 30.844351,266.656494 
	C31.616253,267.715271 32.388157,268.774048 32.986111,270.417816 
	C32.928036,270.612823 32.869961,270.807831 32.050426,270.999603 
	C27.503958,269.343475 22.957487,267.687317 17.001925,265.517883 
	C18.609596,267.724487 19.387003,268.791504 20.070597,270.437592 
	C20.376480,270.646912 20.682364,270.856201 20.990595,271.002563 
	C20.990595,271.002563 20.930273,271.020966 21.163921,271.696014 
	C21.930784,273.116241 22.420444,274.818390 23.520407,275.899811 
	C26.059109,278.395721 25.883429,280.686646 23.968330,283.416260 
	C21.898867,286.365906 20.090891,289.498993 18.168861,292.552063 
	C18.378672,292.808777 18.588482,293.065460 18.798292,293.322174 
	C23.733955,291.288330 28.669617,289.254486 34.368298,286.906189 
	C33.044544,289.349152 32.148090,291.003510 30.916571,293.276215 
	C36.367615,291.255249 40.989170,289.541809 46.448898,287.517639 
	C45.392567,290.093811 44.846439,291.425690 44.009132,293.467712 
	C49.899551,291.033203 54.950485,288.945648 60.650475,286.958252 
	C61.752224,286.329834 62.853973,285.701416 64.729126,285.008606 
	C67.845367,283.958405 70.961601,282.908234 74.997368,281.971954 
	C183.653473,281.981812 292.309601,281.990997 400.965698,282.006805 
	C402.963257,282.007111 404.960785,282.086273 407.022644,282.900604 
	C407.458191,287.123840 410.572601,285.866974 413.975311,285.959778 
	C417.290466,285.903748 420.605652,285.847748 424.673340,285.947296 
	C426.780182,286.660858 428.887054,287.374390 430.787109,288.692444 
	C430.073608,289.945251 429.360107,291.198090 428.368805,292.938751 
	C432.330872,291.675903 435.517700,290.660126 439.656830,289.852112 
	C444.411682,289.656189 449.166504,289.460297 454.341461,289.793884 
	C457.180115,291.307190 460.018768,292.820496 462.857422,294.333771 
	C463.105286,293.888550 463.353149,293.443329 463.601044,292.998077 
	C462.567291,291.722626 461.533539,290.447174 460.404327,289.053925 
	C461.888062,288.168823 462.954346,287.532715 464.844635,287.036499 
	C469.895905,287.825348 474.947144,288.614197 478.642334,289.191284 
	C480.401978,287.735046 481.584900,286.756073 483.490936,285.569611 
	C484.470490,283.440979 483.944366,282.534180 481.512299,281.800873 
	C478.861969,281.001831 476.507568,279.221344 473.921173,277.108948 
	C473.223083,274.435791 472.524994,271.762665 472.118469,268.380127 
	C472.031860,263.949066 471.945251,259.518036 472.027802,254.304123 
	C472.079315,248.993118 472.283722,243.677643 472.128387,238.372696 
	C472.025635,234.862656 471.406830,231.367722 471.042542,227.067657 
	C470.408508,219.206238 465.468567,213.649292 460.973663,207.234299 
	C461.003021,206.506546 461.032349,205.778809 461.737213,204.704010 
	C465.487274,197.642838 463.607056,190.764435 461.010864,182.983643 
	C461.652344,172.902664 462.163757,162.810944 462.993683,152.745514 
	C463.372437,148.151901 464.379578,143.610123 465.802765,138.581558 
	C465.807556,132.406204 465.812347,126.230843 465.977051,119.184486 
	C464.661743,114.082436 463.346436,108.980377 461.992981,103.104019 
	C461.638611,101.503441 461.664886,99.669296 460.854462,98.348549 
	C458.867340,95.110100 457.078705,91.194145 454.098846,89.289673 
	C451.538208,87.653122 447.439819,88.422668 443.973755,87.987396 
	C443.973755,87.987396 443.829956,87.949654 443.712952,87.595818 
	C443.558533,87.361382 443.342194,87.263229 442.488434,86.879929 
	C441.347992,85.549950 440.433350,83.454117 439.023315,83.038414 
	C435.292694,81.938560 431.347656,81.566040 427.428558,80.893860 
	C428.932617,84.303154 430.425293,87.686668 432.034119,91.671082 
	C432.346558,92.144020 432.658997,92.616959 432.944244,93.004776 
	C432.944244,93.004776 432.859558,93.033401 432.970825,93.821564 
	C433.608826,98.192955 434.246826,102.564354 434.210266,107.214264 
	C431.291534,112.424347 429.169891,117.827980 429.771637,124.712395 
z"/>
<path fill="#DEC55E" opacity="1.000000" stroke="none" 
	d="
M74.107544,278.231567 
	C76.265511,278.153839 78.423477,278.008453 80.581451,278.008148 
	C191.464600,277.993347 302.347748,277.990814 414.019897,278.001526 
	C415.227020,277.961426 415.645172,277.906769 416.502716,277.923096 
	C419.620331,277.954742 422.298523,277.915436 425.422272,277.942688 
	C428.743073,278.009277 431.618286,278.009277 435.446777,278.009277 
	C433.757629,275.337128 432.574249,273.465088 431.282104,271.336975 
	C430.782043,270.712921 430.390778,270.344940 429.996887,269.993958 
	C429.994263,270.010895 430.027222,270.001434 430.001221,269.709808 
	C429.967285,268.513489 429.959351,267.608826 430.281982,266.837769 
	C431.719299,267.360077 432.826080,267.748779 434.171631,268.356110 
	C435.617462,269.011963 436.824524,269.449158 438.348633,270.060974 
	C442.108246,271.516602 445.550842,272.797668 449.256714,274.304932 
	C453.071259,276.055878 456.622498,277.580627 460.068176,279.330597 
	C459.721863,279.791534 459.444183,279.969727 458.650665,280.050903 
	C455.065186,279.997101 451.944458,279.788666 448.855469,280.014404 
	C444.372284,280.342072 439.911957,280.983185 435.368164,281.584717 
	C435.294434,281.678864 434.982117,282.044617 435.006958,282.009125 
	C435.031830,281.973633 434.961853,281.922546 434.523621,281.885132 
	C431.735138,281.892975 429.384827,281.938202 426.702759,281.796356 
	C423.588531,281.783386 420.806122,281.957520 417.563141,282.072815 
	C413.721161,282.052216 410.339752,282.090424 406.958344,282.128632 
	C404.960785,282.086273 402.963257,282.007111 400.965698,282.006805 
	C292.309601,281.990997 183.653473,281.981812 74.721916,281.674377 
	C75.221069,280.785461 75.995674,280.194153 76.932899,279.478729 
	C75.753036,278.957916 74.930290,278.594757 74.107544,278.231567 
z"/>
<path fill="#FAC010" opacity="1.000000" stroke="none" 
	d="
M32.811882,271.002808 
	C32.869961,270.807831 32.928036,270.612823 33.398300,270.224548 
	C35.218456,270.727142 36.626431,271.423004 38.227158,272.392944 
	C42.725590,275.071350 47.031273,277.475647 51.336956,279.879974 
	C51.584045,279.577240 51.831135,279.274536 52.078224,278.971802 
	C51.065964,277.547760 50.053703,276.123688 48.900154,274.532532 
	C48.551342,274.143707 48.297916,274.007355 48.022293,273.963348 
	C48.045990,273.970398 48.092041,273.951965 48.044941,273.650635 
	C47.639675,272.869690 47.281506,272.390045 46.923332,271.910431 
	C46.923332,271.910431 46.954365,271.473694 47.324165,271.200653 
	C52.409687,272.621460 57.125401,274.315338 61.729626,276.301544 
	C61.112732,277.691193 60.607327,278.788513 60.097267,280.324036 
	C60.062218,282.794189 60.031815,284.826111 60.001419,286.858063 
	C54.950485,288.945648 49.899551,291.033203 44.009132,293.467712 
	C44.846439,291.425690 45.392567,290.093811 46.448898,287.517639 
	C40.989170,289.541809 36.367615,291.255249 30.916571,293.276215 
	C32.148090,291.003510 33.044544,289.349152 34.368298,286.906189 
	C28.669617,289.254486 23.733955,291.288330 18.798292,293.322174 
	C18.588482,293.065460 18.378672,292.808777 18.168861,292.552063 
	C20.090891,289.498993 21.898867,286.365906 23.968330,283.416260 
	C25.883429,280.686646 26.059109,278.395721 23.520407,275.899811 
	C22.420444,274.818390 21.930784,273.116241 21.406715,271.351959 
	C22.784739,271.378448 23.919966,271.748993 25.249596,272.390442 
	C29.750290,275.066437 34.056580,277.471527 38.362873,279.876617 
	C38.593765,279.615173 38.824661,279.353729 39.055553,279.092285 
	C38.279949,277.695770 37.504341,276.299225 36.621727,274.733337 
	C36.340714,274.355835 36.142586,274.173950 35.950573,274.064392 
	C35.980812,274.110504 35.902473,274.188110 35.774776,273.890747 
	C34.702015,272.729889 33.756950,271.866333 32.811882,271.002808 
z"/>
<path fill="#C1202A" opacity="1.000000" stroke="none" 
	d="
M409.095001,215.007462 
	C408.758179,214.531891 408.421387,214.056320 408.421570,213.233246 
	C409.854706,212.585251 410.950928,212.284775 412.270111,211.989502 
	C412.493103,211.994690 412.939148,211.988281 413.004089,212.342194 
	C416.557098,220.254593 418.697998,222.714447 422.187866,223.217224 
	C421.480194,220.831436 420.767700,218.429321 420.359680,216.117065 
	C421.763519,217.240601 422.862793,218.274261 423.513000,218.885651 
	C424.474854,216.781097 425.386597,214.786163 426.511353,213.083084 
	C427.519104,216.867462 428.313873,220.359985 428.955566,224.072418 
	C428.539948,224.532150 428.277435,224.771942 427.760925,225.008301 
	C427.337524,225.003632 427.168152,225.002380 426.927155,224.736588 
	C426.353760,224.139862 425.851959,223.807678 425.350189,223.475479 
	C425.263763,224.195877 425.422821,224.498718 425.669250,224.612686 
	C426.084045,224.804520 426.554291,224.876434 427.003143,225.338196 
	C427.016998,226.130219 427.028931,226.582840 427.023682,227.024292 
	C427.006531,227.013138 427.043701,227.044128 426.742828,227.046661 
	C425.906464,227.317245 425.370972,227.585297 424.835480,227.853317 
	C425.262024,228.230804 425.688568,228.608292 426.326538,229.305481 
	C427.035370,231.631317 427.839813,233.618286 427.966339,235.647522 
	C428.229340,239.866898 428.133148,244.108658 428.173096,248.688873 
	C428.098541,249.961319 428.035431,250.886108 427.746185,251.876953 
	C427.520020,251.943008 427.071808,252.084930 426.735352,251.969543 
	C425.023834,249.983566 423.648743,248.112976 422.207764,245.782471 
	C422.072479,243.363052 422.234406,241.361084 421.884064,239.453186 
	C421.222168,235.848740 421.230469,231.796112 416.973999,229.912842 
	C416.937866,229.839554 416.737732,229.831467 416.737732,229.831467 
	C416.737732,229.831467 416.986572,230.009583 416.953156,230.427734 
	C416.953674,236.925156 416.783997,243.015137 417.102875,249.079437 
	C417.276062,252.373169 419.368896,254.525131 422.769958,255.200623 
	C421.049469,259.256622 418.535248,258.895905 415.542236,256.874390 
	C415.238678,256.447327 415.089050,256.186218 414.942566,255.923294 
	C412.811401,251.045532 410.680206,246.167755 408.563904,241.324020 
	C415.734039,237.831131 416.408875,227.911026 411.263306,220.133057 
	C410.564758,218.058853 409.829865,216.533157 409.095001,215.007462 
z"/>
<path fill="#93151D" opacity="1.000000" stroke="none" 
	d="
M444.021393,88.128258 
	C447.439819,88.422668 451.538208,87.653122 454.098846,89.289673 
	C457.078705,91.194145 458.867340,95.110100 460.854462,98.348549 
	C461.664886,99.669296 461.638611,101.503441 462.003021,103.939003 
	C462.345551,108.181557 462.678040,111.589119 462.856018,115.309494 
	C460.842957,120.668839 458.105377,124.235970 451.930725,121.557327 
	C452.635834,111.992302 450.703796,103.403008 447.018311,94.885269 
	C446.097656,92.438644 445.059509,90.283455 444.021393,88.128258 
z"/>
<path fill="#F54531" opacity="1.000000" stroke="none" 
	d="
M459.129608,280.090332 
	C459.444183,279.969727 459.721863,279.791534 460.307556,279.413696 
	C461.105865,279.529968 461.559174,279.788330 462.333618,280.204712 
	C464.534149,279.880157 466.413605,279.397614 468.450287,279.186890 
	C468.870514,280.500305 469.133514,281.541931 469.396515,282.583588 
	C469.891754,282.488312 470.386993,282.393036 470.882233,282.297791 
	C470.261993,278.858673 469.641754,275.419556 469.004578,271.650269 
	C468.649933,270.529419 468.312256,269.738770 467.976379,268.497437 
	C467.978210,264.895630 467.978210,261.744446 467.978210,257.304504 
	C466.602997,259.868439 465.939178,261.106079 465.833282,261.303467 
	C462.135223,260.477386 459.066101,259.791779 455.677643,258.957520 
	C453.559448,259.199493 451.760620,259.590179 449.656128,260.048676 
	C448.273590,260.757996 447.196686,261.399475 445.884827,261.805481 
	C445.079865,261.228333 444.509888,260.886627 443.925476,260.317200 
	C443.904999,259.784943 443.913788,259.480896 444.153503,258.877930 
	C445.617401,255.363937 446.865204,252.149246 448.446442,249.025513 
	C452.707703,251.534042 456.604248,254.004333 460.572113,256.354218 
	C464.450073,258.650848 465.955261,257.853851 465.938354,253.269714 
	C465.926819,250.149109 465.351868,247.030594 465.253296,243.617157 
	C465.959412,240.956818 466.441071,238.590469 466.928528,236.648163 
	C467.640533,244.019714 468.346741,250.967239 469.028076,258.334778 
	C469.621582,261.428986 470.239990,264.103210 470.923889,267.087158 
	C471.268585,267.961090 471.547760,268.525299 471.826904,269.089508 
	C472.524994,271.762665 473.223083,274.435791 473.738647,277.750641 
	C470.563507,282.019257 472.982758,283.126648 476.117950,283.943146 
	C478.342865,284.522583 480.551788,285.163574 482.767822,285.777100 
	C481.584900,286.756073 480.401978,287.735046 478.642334,289.191284 
	C474.947144,288.614197 469.895905,287.825348 464.227295,286.685120 
	C460.750916,285.054199 457.891876,283.774689 455.291748,282.350342 
	C456.743622,281.500427 457.936615,280.795380 459.129608,280.090332 
z"/>
<path fill="#93151D" opacity="1.000000" stroke="none" 
	d="
M410.136108,157.031219 
	C408.865417,153.005905 407.594757,148.980606 406.328369,144.968979 
	C406.750854,144.790405 407.213257,144.522980 407.262177,144.584488 
	C411.624237,150.068481 415.531097,148.160797 419.742340,144.213959 
	C420.434235,143.565521 423.222626,144.364349 424.415771,145.296234 
	C425.331207,146.011230 425.260712,147.988541 425.417145,149.816559 
	C423.931458,149.916412 422.657379,149.604126 420.633026,149.107941 
	C421.821808,152.309814 422.865723,155.121597 423.965759,158.246948 
	C424.345703,159.055527 424.669525,159.550552 425.006622,160.018372 
	C425.019867,159.991165 424.961517,159.975174 424.875336,160.399628 
	C425.255157,164.177872 425.721161,167.531693 426.146240,171.330978 
	C426.084839,173.853302 426.064392,175.930161 425.769073,178.179443 
	C423.959076,179.545761 422.423981,180.739624 420.559601,181.820923 
	C419.468719,178.822861 418.707092,175.937332 418.112427,172.706039 
	C418.494049,170.596848 418.708740,168.833420 418.941956,166.639771 
	C418.960419,164.115143 418.960419,162.020752 418.960419,160.675537 
	C415.472534,159.235107 412.804321,158.133163 410.136108,157.031219 
z"/>
<path fill="#9D181F" opacity="1.000000" stroke="none" 
	d="
M443.997559,88.057831 
	C445.059509,90.283455 446.097656,92.438644 446.790955,94.845886 
	C446.446106,95.097939 445.990692,95.015892 445.953766,94.959030 
	C445.916840,94.902176 446.015350,94.990250 446.010681,95.364937 
	C446.008698,96.489052 446.011383,97.238487 445.872803,98.291634 
	C445.507721,99.451172 445.283875,100.306992 445.062592,101.593887 
	C444.015137,107.661758 442.965118,113.298553 441.719421,119.069580 
	C441.291046,119.427193 441.113007,119.687920 440.732849,120.132881 
	C439.877319,120.786728 439.278595,121.293694 437.429321,122.859497 
	C438.318207,113.858337 439.077087,106.173805 439.895447,97.887077 
	C438.808716,99.300255 438.166870,100.134895 437.684113,100.762657 
	C436.000305,98.065079 434.429901,95.549248 432.859558,93.033409 
	C432.859558,93.033401 432.944244,93.004776 432.926880,92.751343 
	C432.579010,92.022003 432.248505,91.546097 431.917969,91.070183 
	C430.425293,87.686668 428.932617,84.303154 427.428558,80.893860 
	C431.347656,81.566040 435.292694,81.938560 439.023315,83.038414 
	C440.433350,83.454117 441.347992,85.549950 442.884308,87.221085 
	C443.438354,87.726997 443.621613,87.856133 443.829956,87.949654 
	C443.829956,87.949654 443.973755,87.987396 443.997559,88.057831 
M440.317200,94.756844 
	C440.447968,94.639023 440.578766,94.521210 440.709534,94.403389 
	C440.563080,94.441757 440.416656,94.480118 440.317200,94.756844 
z"/>
<path fill="#9D181F" opacity="1.000000" stroke="none" 
	d="
M430.098602,136.010269 
	C430.040131,135.585052 429.981659,135.159851 430.137695,134.087692 
	C430.568176,130.293625 430.784088,127.146507 431.027161,123.611679 
	C432.674835,118.532097 434.295380,113.840225 435.925232,109.601044 
	C436.208679,116.323868 436.429688,122.596954 436.777283,128.863022 
	C436.982117,132.556168 437.402191,136.237045 437.697510,139.925659 
	C437.878448,142.185669 437.843048,144.476196 438.201599,146.705276 
	C438.605316,149.215302 439.342682,151.671661 439.841736,154.391235 
	C440.439087,157.402863 441.129578,160.174652 441.441406,162.946259 
	C439.194794,161.430878 437.326874,159.915680 436.090363,158.912674 
	C435.308075,159.977036 434.211060,161.469620 432.942749,162.670822 
	C431.664764,160.959641 430.417908,159.624191 429.496124,158.093048 
	C428.775452,156.896027 428.458038,155.456268 427.961426,154.124359 
	C429.067932,152.494736 430.174408,150.865097 431.827332,149.320465 
	C433.116943,151.051239 433.860138,152.697006 434.603333,154.342773 
	C435.118225,154.174362 435.633148,154.005951 436.148041,153.837540 
	C434.131561,147.895111 432.115082,141.952682 430.098602,136.010269 
z"/>
<path fill="#DC2A2F" opacity="1.000000" stroke="none" 
	d="
M439.934875,154.151367 
	C439.342682,151.671661 438.605316,149.215302 438.201599,146.705276 
	C437.843048,144.476196 437.878448,142.185669 437.697510,139.925659 
	C437.402191,136.237045 436.982117,132.556168 436.777283,128.863022 
	C436.429688,122.596954 436.208679,116.323868 435.892212,109.283920 
	C435.528229,107.987984 435.206512,107.461861 434.884827,106.935745 
	C434.246826,102.564354 433.608826,98.192955 432.915161,93.427490 
	C434.429901,95.549248 436.000305,98.065079 437.684113,100.762657 
	C438.166870,100.134895 438.808716,99.300255 439.895447,97.887077 
	C439.077087,106.173805 438.318207,113.858337 437.429321,122.859497 
	C439.278595,121.293694 439.877319,120.786728 440.737823,120.139534 
	C440.999603,119.999298 440.992401,119.994431 440.918213,120.387756 
	C439.412659,126.145111 438.869812,131.423706 442.404388,137.042053 
	C443.495697,135.400925 444.274994,134.229004 445.303223,133.175262 
	C446.048950,133.531876 446.545746,133.770340 447.002197,134.360870 
	C445.961487,136.803665 444.961090,138.894379 443.716461,141.241547 
	C441.229309,146.575500 442.126953,149.360931 446.887573,152.452179 
	C446.892426,153.542542 446.894958,154.269424 446.693542,155.191528 
	C444.996521,154.905090 443.503418,154.423462 441.997620,153.627411 
	C441.682617,152.555878 441.380341,151.798782 440.603973,149.854324 
	C440.246826,152.148056 440.090851,153.149704 439.934875,154.151367 
z"/>
<path fill="#9D181F" opacity="1.000000" stroke="none" 
	d="
M469.052948,257.914764 
	C468.346741,250.967239 467.640533,244.019714 466.821777,236.266525 
	C466.134094,233.229523 465.961578,230.782745 464.905365,228.808884 
	C462.184448,223.724091 459.072449,218.848602 456.116455,213.540283 
	C457.679962,211.441757 459.243683,209.692459 460.807373,207.943161 
	C465.468567,213.649292 470.408508,219.206238 470.952301,227.882721 
	C470.879333,237.495773 470.896606,246.293793 470.906433,255.377594 
	C470.889038,256.045502 470.879089,256.427582 470.651062,256.965271 
	C469.972992,257.385498 469.512970,257.650116 469.052948,257.914764 
z"/>
<path fill="#DC2A2F" opacity="1.000000" stroke="none" 
	d="
M460.890503,207.588730 
	C459.243683,209.692459 457.679962,211.441757 456.146698,213.930023 
	C457.793396,221.716827 459.409607,228.764664 461.015228,236.256546 
	C460.860535,238.669235 460.956482,240.691910 460.527924,242.596558 
	C459.169922,248.631790 455.400513,250.123108 449.992615,246.616058 
	C449.982452,245.893341 449.976013,245.479904 450.009796,244.780640 
	C450.084869,244.305634 450.119781,244.116409 450.534485,243.965637 
	C456.461334,245.220978 457.260956,244.738235 457.841217,239.126266 
	C458.042206,237.182648 458.017822,235.052719 457.408173,233.239304 
	C456.911133,231.761002 455.388397,230.627563 454.320526,229.341202 
	C453.227936,230.800888 451.685974,232.114197 451.151184,233.755615 
	C450.405365,236.044815 450.412323,238.579300 449.763000,241.052734 
	C448.600769,241.428802 447.772736,241.760941 446.929199,242.090378 
	C446.913727,242.087662 446.881622,242.077286 446.910645,241.612183 
	C446.954285,237.422073 446.968872,233.697067 446.992493,229.642288 
	C447.013245,228.872513 447.024933,228.432510 447.319580,227.792313 
	C448.816620,225.390656 450.030731,223.189209 451.508301,221.157928 
	C453.324341,222.830841 454.876862,224.333572 456.429382,225.836304 
	C456.912506,225.604599 457.395630,225.372894 457.878723,225.141190 
	C456.269501,221.409714 454.660278,217.678223 453.037750,213.570740 
	C453.353149,211.778870 453.681915,210.363037 454.349670,208.897720 
	C456.787994,207.561661 458.887390,206.275070 461.005463,205.004181 
	C461.024139,205.019882 461.061707,205.051056 461.061707,205.051056 
	C461.032349,205.778809 461.003021,206.506546 460.890503,207.588730 
z"/>
<path fill="#E89216" opacity="1.000000" stroke="none" 
	d="
M458.650665,280.050903 
	C457.936615,280.795380 456.743622,281.500427 454.936218,282.470398 
	C452.527313,283.462769 450.732849,284.190247 448.608826,285.058075 
	C445.087738,286.680420 441.896118,288.162384 438.704498,289.644348 
	C435.517700,290.660126 432.330872,291.675903 428.368805,292.938751 
	C429.360107,291.198090 430.073608,289.945251 431.141052,288.168274 
	C432.650635,285.736938 433.806244,283.829742 434.961853,281.922546 
	C434.961853,281.922546 435.031830,281.973633 435.042694,281.885223 
	C435.135132,281.633911 435.264587,281.531830 435.441895,281.490601 
	C439.911957,280.983185 444.372284,280.342072 448.855469,280.014404 
	C451.944458,279.788666 455.065186,279.997101 458.650665,280.050903 
z"/>
<path fill="#F54531" opacity="1.000000" stroke="none" 
	d="
M465.101715,139.044830 
	C464.379578,143.610123 463.372437,148.151901 462.993683,152.745514 
	C462.163757,162.810944 461.652344,172.902664 460.820740,183.685364 
	C460.410004,185.203568 460.189392,186.020035 459.888092,187.207550 
	C458.533173,190.397995 457.258942,193.217392 455.986633,195.629211 
	C458.091675,188.120941 458.634003,181.082611 455.492859,174.214294 
	C456.861206,173.463028 458.676971,172.800156 458.784546,171.926895 
	C459.643524,164.952988 460.179077,157.939224 460.851562,150.537384 
	C461.894684,146.426636 462.899933,142.716202 464.204224,139.019653 
	C464.702698,139.037277 464.902222,139.041046 465.101715,139.044830 
z"/>
<path fill="#DC2A2F" opacity="1.000000" stroke="none" 
	d="
M427.649170,153.974472 
	C428.458038,155.456268 428.775452,156.896027 429.496124,158.093048 
	C430.417908,159.624191 431.664764,160.959641 432.976929,163.027786 
	C433.781769,165.296890 434.381134,166.917633 434.980499,168.538376 
	C435.730072,169.010086 436.479614,169.481796 437.229187,169.953491 
	C437.353180,168.650696 437.477173,167.347900 437.649445,165.538116 
	C440.393097,171.077591 437.416443,172.189026 434.100555,172.799850 
	C432.978668,170.969635 431.968781,169.497864 430.616730,167.962036 
	C428.503540,165.257050 426.732544,162.616119 424.961517,159.975174 
	C424.961517,159.975174 425.019867,159.991165 424.996368,159.777130 
	C424.618469,159.019852 424.264069,158.476608 423.909668,157.933380 
	C422.865723,155.121597 421.821808,152.309814 420.633026,149.107941 
	C422.657379,149.604126 423.931458,149.916412 425.479828,150.180756 
	C426.281708,151.363403 426.809296,152.593994 427.649170,153.974472 
z"/>
<path fill="#A91C25" opacity="1.000000" stroke="none" 
	d="
M412.978577,189.114914 
	C411.981567,187.034363 410.984558,184.953812 409.985199,182.062073 
	C409.607239,178.805557 409.231598,176.360214 408.856018,173.914871 
	C408.898132,173.473679 408.940277,173.032501 409.246277,172.001282 
	C409.655457,170.559204 409.800781,169.707138 409.946136,168.855072 
	C409.972290,168.434540 409.998474,168.014023 410.401398,167.394577 
	C411.813965,168.793945 412.849792,170.392227 413.975952,172.357925 
	C415.387482,176.157928 416.708679,179.590515 417.956665,183.343964 
	C416.619812,185.353195 415.356140,187.041550 413.816711,188.833984 
	C413.353516,188.997009 413.166077,189.055954 412.978577,189.114914 
z"/>
<path fill="#9D181F" opacity="1.000000" stroke="none" 
	d="
M448.938354,284.917725 
	C450.732849,284.190247 452.527313,283.462769 454.677307,282.615234 
	C457.891876,283.774689 460.750916,285.054199 463.815308,286.615173 
	C462.954346,287.532715 461.888062,288.168823 460.404327,289.053925 
	C461.533539,290.447174 462.567291,291.722626 463.601044,292.998077 
	C463.353149,293.443329 463.105286,293.888550 462.857422,294.333771 
	C460.018768,292.820496 457.180115,291.307190 453.946045,289.255249 
	C452.013214,287.450348 450.475769,286.184021 448.938354,284.917725 
z"/>
<path fill="#CC232C" opacity="1.000000" stroke="none" 
	d="
M416.063293,277.852112 
	C415.645172,277.906769 415.227020,277.961426 414.498291,277.960846 
	C413.135071,273.558624 412.082458,269.211609 411.507019,264.457214 
	C413.918701,263.957458 415.853210,263.865112 417.893250,264.108459 
	C418.655762,265.646179 419.312744,266.848206 419.631958,268.140747 
	C418.654510,270.032501 417.993805,271.826660 417.381866,273.637268 
	C416.910583,275.031464 416.500580,276.446411 416.063293,277.852112 
z"/>
<path fill="#DEC55E" opacity="1.000000" stroke="none" 
	d="
M61.841110,276.009216 
	C57.125401,274.315338 52.409687,272.621460 47.299557,270.983093 
	C46.905144,271.038605 46.970478,271.009583 46.881958,270.808746 
	C46.504261,270.439941 46.215080,270.271973 45.925903,270.104004 
	C45.208458,268.940125 44.491005,267.776245 42.970448,265.309509 
	C51.491604,268.675720 58.588367,271.444214 65.638145,274.327606 
	C66.232071,274.570526 66.510841,275.583954 66.532959,276.550598 
	C64.700294,276.577606 63.270702,276.293396 61.841110,276.009216 
z"/>
<path fill="#9E6D31" opacity="1.000000" stroke="none" 
	d="
M61.729622,276.301544 
	C63.270702,276.293396 64.700294,276.577606 66.493813,276.921265 
	C68.995506,277.404205 71.133278,277.827637 73.689293,278.241333 
	C74.930290,278.594757 75.753036,278.957916 76.932899,279.478729 
	C75.995674,280.194153 75.221069,280.785461 74.262154,281.617401 
	C70.961601,282.908234 67.845367,283.958405 64.504639,284.741577 
	C65.848846,283.248444 67.417542,282.022308 70.150986,279.885834 
	C65.833321,279.885834 62.967617,279.885834 60.101921,279.885834 
	C60.607327,278.788513 61.112732,277.691193 61.729622,276.301544 
z"/>
<path fill="#FD7427" opacity="1.000000" stroke="none" 
	d="
M412.855164,189.461945 
	C413.166077,189.055954 413.353516,188.997009 414.016968,189.143463 
	C414.204651,190.907166 413.829712,192.455307 413.644562,194.025803 
	C413.118256,198.489670 411.542267,203.093582 415.090118,207.293900 
	C415.034332,207.499191 414.938202,207.913651 414.611023,208.041534 
	C413.835602,209.442383 413.387390,210.715332 412.939148,211.988281 
	C412.939148,211.988281 412.493103,211.994690 412.114380,211.667557 
	C410.791351,209.850250 409.847046,208.360062 408.902710,206.869873 
	C409.947418,201.607544 410.981750,196.343094 412.055267,191.086639 
	C412.147797,190.633591 412.500122,190.233597 412.855164,189.461945 
z"/>
<path fill="#A91C25" opacity="1.000000" stroke="none" 
	d="
M410.090210,157.404846 
	C412.804321,158.133163 415.472534,159.235107 418.960419,160.675537 
	C418.960419,162.020752 418.960419,164.115143 418.644592,166.727203 
	C417.398834,168.001923 416.468933,168.758987 415.009216,169.947357 
	C414.233826,167.587662 413.817444,165.699844 412.995605,164.009094 
	C412.293213,162.564026 411.125580,161.345093 410.163696,160.026154 
	C410.123901,159.276932 410.084106,158.527710 410.090210,157.404846 
z"/>
<path fill="#DC2A2F" opacity="1.000000" stroke="none" 
	d="
M470.913879,255.091797 
	C470.896606,246.293793 470.879333,237.495773 470.940552,228.281891 
	C471.406830,231.367722 472.025635,234.862656 472.128387,238.372696 
	C472.283722,243.677643 472.079315,248.993118 471.707001,254.689880 
	C471.386200,255.075638 470.913879,255.091797 470.913879,255.091797 
z"/>
<path fill="#DEC55E" opacity="1.000000" stroke="none" 
	d="
M32.431152,271.001221 
	C33.756950,271.866333 34.702015,272.729889 35.378273,273.859680 
	C31.758041,273.457123 28.406620,272.788330 25.055195,272.119537 
	C23.919966,271.748993 22.784739,271.378448 21.289892,271.014435 
	C20.930273,271.020966 20.990595,271.002563 20.944256,270.782104 
	C20.653416,270.327271 20.408916,270.092896 20.164413,269.858521 
	C19.387003,268.791504 18.609596,267.724487 17.001925,265.517883 
	C22.957487,267.687317 27.503958,269.343475 32.431152,271.001221 
z"/>
<path fill="#C1202A" opacity="1.000000" stroke="none" 
	d="
M410.095459,160.456772 
	C411.125580,161.345093 412.293213,162.564026 412.995605,164.009094 
	C413.817444,165.699844 414.233826,167.587662 415.009216,169.947357 
	C416.468933,168.758987 417.398834,168.001923 418.626099,167.157440 
	C418.708740,168.833420 418.494049,170.596848 417.855408,172.789352 
	C416.249542,172.809128 415.067566,172.399811 413.885590,171.990479 
	C412.849792,170.392227 411.813965,168.793945 410.475067,167.087265 
	C410.123718,164.948380 410.075470,162.917892 410.095459,160.456772 
z"/>
<path fill="#DC2A2F" opacity="1.000000" stroke="none" 
	d="
M418.023712,282.131653 
	C420.806122,281.957520 423.588531,281.783386 426.546204,282.073914 
	C425.787903,283.622955 424.854370,284.707367 423.920807,285.791748 
	C420.605652,285.847748 417.290466,285.903748 413.631531,285.612061 
	C414.866394,284.220093 416.445068,283.175873 418.023712,282.131653 
z"/>
<path fill="#DEC55E" opacity="1.000000" stroke="none" 
	d="
M38.034405,272.118835 
	C36.626431,271.423004 35.218456,270.727142 33.485275,269.932037 
	C32.388157,268.774048 31.616253,267.715271 30.844351,266.656494 
	C31.068607,266.379944 31.292864,266.103363 31.517120,265.826782 
	C36.402603,267.877045 41.288082,269.927307 46.548450,271.944000 
	C47.281506,272.390045 47.639675,272.869690 47.647400,273.653564 
	C44.209442,273.344818 41.121925,272.731842 38.034405,272.118835 
z"/>
<path fill="#93151D" opacity="1.000000" stroke="none" 
	d="
M448.608826,285.058075 
	C450.475769,286.184021 452.013214,287.450348 453.735992,288.990509 
	C449.166504,289.460297 444.411682,289.656189 439.180664,289.748230 
	C441.896118,288.162384 445.087738,286.680420 448.608826,285.058075 
z"/>
<path fill="#9D181F" opacity="1.000000" stroke="none" 
	d="
M424.297058,285.869507 
	C424.854370,284.707367 425.787903,283.622955 426.877991,282.260986 
	C429.384827,281.938202 431.735138,281.892975 434.523621,281.885132 
	C433.806244,283.829742 432.650635,285.736938 431.244446,287.866028 
	C428.887054,287.374390 426.780182,286.660858 424.297058,285.869507 
z"/>
<path fill="#DC2A2F" opacity="1.000000" stroke="none" 
	d="
M465.452240,138.813202 
	C464.902222,139.041046 464.702698,139.037277 464.044952,138.754608 
	C463.696960,136.977966 463.807220,135.480240 463.943848,133.549194 
	C464.303345,128.737717 464.636475,124.359535 465.181091,120.004456 
	C465.392578,120.027565 465.817169,120.055481 465.817169,120.055481 
	C465.812347,126.230843 465.807556,132.406204 465.452240,138.813202 
z"/>
<path fill="#9D181F" opacity="1.000000" stroke="none" 
	d="
M483.129395,285.673370 
	C480.551788,285.163574 478.342865,284.522583 476.117950,283.943146 
	C472.982758,283.126648 470.563507,282.019257 473.790100,278.130493 
	C476.507568,279.221344 478.861969,281.001831 481.512299,281.800873 
	C483.944366,282.534180 484.470490,283.440979 483.129395,285.673370 
z"/>
<path fill="#E89216" opacity="1.000000" stroke="none" 
	d="
M60.097267,280.324036 
	C62.967617,279.885834 65.833321,279.885834 70.150986,279.885834 
	C67.417542,282.022308 65.848846,283.248444 64.117935,284.773773 
	C62.853973,285.701416 61.752224,286.329834 60.325943,286.908142 
	C60.031815,284.826111 60.062218,282.794189 60.097267,280.324036 
z"/>
<path fill="#A91C25" opacity="1.000000" stroke="none" 
	d="
M430.057617,136.444550 
	C432.115082,141.952682 434.131561,147.895111 436.148041,153.837540 
	C435.633148,154.005951 435.118225,154.174362 434.603333,154.342773 
	C433.860138,152.697006 433.116943,151.051239 432.115845,149.162231 
	C431.244202,144.905609 430.630432,140.892227 430.057617,136.444550 
z"/>
<path fill="#93151D" opacity="1.000000" stroke="none" 
	d="
M417.787720,263.772766 
	C415.853210,263.865112 413.918701,263.957458 411.568909,264.057190 
	C412.267578,261.524689 413.381561,258.984863 414.719055,256.184174 
	C415.089050,256.186218 415.238678,256.447327 415.640991,257.228271 
	C416.522919,259.757538 417.155334,261.765137 417.787720,263.772766 
z"/>
<path fill="#DC2A2F" opacity="1.000000" stroke="none" 
	d="
M459.968750,186.836487 
	C460.189392,186.020035 460.410004,185.203568 460.846375,184.147369 
	C463.607056,190.764435 465.487274,197.642838 461.399475,204.877533 
	C461.061707,205.051056 461.024139,205.019882 461.009583,204.580475 
	C462.206085,198.280746 463.063141,192.441452 459.968750,186.836487 
z"/>
<path fill="#C1202A" opacity="1.000000" stroke="none" 
	d="
M434.547546,107.075005 
	C435.206512,107.461861 435.528229,107.987984 435.882935,108.831230 
	C434.295380,113.840225 432.674835,118.532097 430.811737,123.609726 
	C430.569183,123.995476 430.138550,123.982033 430.138550,123.982033 
	C429.169891,117.827980 431.291534,112.424347 434.547546,107.075005 
z"/>
<path fill="#A91C25" opacity="1.000000" stroke="none" 
	d="
M465.897095,119.619980 
	C465.817169,120.055481 465.392578,120.027565 464.973511,119.735306 
	C464.039825,117.960922 463.525146,116.478806 463.010498,114.996689 
	C462.678040,111.589119 462.345551,108.181557 462.022095,104.326157 
	C463.346436,108.980377 464.661743,114.082436 465.897095,119.619980 
z"/>
<path fill="#93151D" opacity="1.000000" stroke="none" 
	d="
M417.563141,282.072815 
	C416.445068,283.175873 414.866394,284.220093 413.181946,285.562042 
	C410.572601,285.866974 407.458191,287.123840 406.990479,282.514618 
	C410.339752,282.090424 413.721161,282.052216 417.563141,282.072815 
z"/>
<path fill="#CC232C" opacity="1.000000" stroke="none" 
	d="
M408.577332,207.022720 
	C409.847046,208.360062 410.791351,209.850250 411.891388,211.662354 
	C410.950928,212.284775 409.854706,212.585251 408.422119,212.939636 
	C408.141144,211.054214 408.196533,209.114883 408.577332,207.022720 
z"/>
<path fill="#A91C25" opacity="1.000000" stroke="none" 
	d="
M429.955078,124.347214 
	C430.138550,123.982033 430.569183,123.995476 430.784607,123.997437 
	C430.784088,127.146507 430.568176,130.293625 430.098633,133.767624 
	C429.820587,130.967133 429.796112,127.839760 429.955078,124.347214 
z"/>
<path fill="#FB622B" opacity="1.000000" stroke="none" 
	d="
M470.906433,255.377594 
	C470.913879,255.091797 471.386200,255.075638 471.622437,255.081299 
	C471.945251,259.518036 472.031860,263.949066 471.972687,268.734802 
	C471.547760,268.525299 471.268585,267.961090 470.957397,266.655182 
	C470.906586,262.878876 470.887848,259.844269 470.869110,256.809662 
	C470.879089,256.427582 470.889038,256.045502 470.906433,255.377594 
z"/>
<path fill="#C1202A" opacity="1.000000" stroke="none" 
	d="
M408.559692,174.154816 
	C409.231598,176.360214 409.607239,178.805557 409.973633,181.690643 
	C409.397400,179.551834 408.830414,176.973297 408.559692,174.154816 
z"/>
<path fill="#CC232C" opacity="1.000000" stroke="none" 
	d="
M409.057983,215.363007 
	C409.829865,216.533157 410.564758,218.058853 411.081421,219.829147 
	C410.249084,218.622025 409.635010,217.170303 409.057983,215.363007 
z"/>
<path fill="#C1202A" opacity="1.000000" stroke="none" 
	d="
M409.650360,169.037964 
	C409.800781,169.707138 409.655457,170.559204 409.318542,171.676819 
	C409.202881,171.035187 409.278748,170.128006 409.650360,169.037964 
z"/>
<path fill="#DC2A2F" opacity="1.000000" stroke="none" 
	d="
M431.976044,91.370636 
	C432.248505,91.546097 432.579010,92.022003 432.940491,92.793915 
	C432.658997,92.616959 432.346558,92.144020 431.976044,91.370636 
z"/>
<path fill="#93151D" opacity="1.000000" stroke="none" 
	d="
M443.771454,87.772736 
	C443.621613,87.856133 443.438354,87.726997 443.172058,87.431793 
	C443.342194,87.263229 443.558533,87.361382 443.771454,87.772736 
z"/>
<path fill="#FAC010" opacity="1.000000" stroke="none" 
	d="
M46.005432,270.356506 
	C46.215080,270.271973 46.504261,270.439941 46.894722,270.842133 
	C46.692322,270.920563 46.388641,270.764771 46.005432,270.356506 
z"/>
<path fill="#FAC010" opacity="1.000000" stroke="none" 
	d="
M20.117508,270.148071 
	C20.408916,270.092896 20.653416,270.327271 20.943081,270.813599 
	C20.682364,270.856201 20.376480,270.646912 20.117508,270.148071 
z"/>
<path fill="#DC2A2F" opacity="1.000000" stroke="none" 
	d="
M417.893250,264.108459 
	C417.155334,261.765137 416.522919,259.757538 415.791779,257.396057 
	C418.535248,258.895905 421.049469,259.256622 422.791870,254.887421 
	C422.959045,253.844910 422.996063,253.426270 423.236816,253.302917 
	C423.612732,255.017868 423.784851,256.437531 423.743713,258.091797 
	C422.944946,259.885895 422.359436,261.445374 421.752869,263.297516 
	C421.752502,263.980347 421.773132,264.370544 421.692780,264.930420 
	C421.648865,265.470978 421.705933,265.841888 421.847534,266.527771 
	C424.630432,267.895630 427.328827,268.948547 430.027222,270.001434 
	C430.027222,270.001434 429.994263,270.010895 430.046387,270.286224 
	C430.529297,270.905396 430.960083,271.249237 431.390869,271.593079 
	C432.574249,273.465088 433.757629,275.337128 435.446777,278.009277 
	C431.618286,278.009277 428.743073,278.009277 425.282745,277.633911 
	C423.121674,274.189087 421.545685,271.119629 419.969696,268.050201 
	C419.312744,266.848206 418.655762,265.646179 417.893250,264.108459 
z"/>
<path fill="#C1202A" opacity="1.000000" stroke="none" 
	d="
M462.012512,280.046722 
	C461.559174,279.788330 461.105865,279.529968 460.413147,279.188477 
	C456.622498,277.580627 453.071259,276.055878 449.232605,273.982849 
	C448.904724,273.006561 448.864319,272.578491 448.890930,271.756287 
	C449.323364,269.814941 449.688751,268.267761 450.451782,266.755005 
	C456.176636,268.020386 461.649170,268.964905 464.688385,274.082855 
	C463.556335,276.129456 462.784424,278.088074 462.012512,280.046722 
z"/>
<path fill="#E89216" opacity="1.000000" stroke="none" 
	d="
M427.972351,251.810883 
	C428.035431,250.886108 428.098541,249.961319 428.385468,248.517395 
	C429.049530,247.689514 429.489716,247.380768 429.939331,247.482025 
	C430.437592,250.910477 430.926483,253.928955 431.415344,256.947418 
	C431.728760,256.947754 432.042145,256.948090 432.355530,256.948425 
	C432.887146,255.683960 433.418732,254.419464 433.973755,253.530273 
	C434.991486,256.251678 435.985870,258.597778 436.967926,261.358154 
	C436.978149,262.876129 437.000702,263.979828 437.071198,265.432983 
	C437.423279,267.150391 437.727417,268.518372 438.031586,269.886383 
	C436.824524,269.449158 435.617462,269.011963 434.348755,268.130280 
	C433.202179,266.445831 432.117279,265.205841 431.035645,263.722961 
	C431.038879,263.480072 431.025848,262.994415 430.971710,262.607635 
	C429.935852,258.750854 428.954102,255.280869 427.972351,251.810883 
z"/>
<path fill="#F54531" opacity="1.000000" stroke="none" 
	d="
M438.348633,270.060974 
	C437.727417,268.518372 437.423279,267.150391 437.506592,265.399841 
	C439.936829,265.011353 441.979584,265.005402 444.287109,264.999878 
	C444.728363,265.004425 444.904816,265.008514 445.048218,265.406067 
	C444.736969,268.844696 445.544983,271.238495 448.823914,272.150452 
	C448.864319,272.578491 448.904724,273.006561 448.969299,273.756653 
	C445.550842,272.797668 442.108246,271.516602 438.348633,270.060974 
z"/>
<path fill="#A91C25" opacity="1.000000" stroke="none" 
	d="
M419.631958,268.140747 
	C421.545685,271.119629 423.121674,274.189087 424.837189,277.567322 
	C422.298523,277.915436 419.620331,277.954742 416.502716,277.923096 
	C416.500580,276.446411 416.910583,275.031464 417.381866,273.637268 
	C417.993805,271.826660 418.654510,270.032501 419.631958,268.140747 
z"/>
<path fill="#FD7427" opacity="1.000000" stroke="none" 
	d="
M431.025848,262.994415 
	C431.025848,262.994415 431.038879,263.480072 430.819427,263.853333 
	C430.383759,265.052429 430.167572,265.878296 429.951416,266.704132 
	C429.959351,267.608826 429.967285,268.513489 430.001221,269.709808 
	C427.328827,268.948547 424.630432,267.895630 421.870056,266.164673 
	C421.803284,265.244629 421.798492,265.002686 421.793762,264.760742 
	C421.773132,264.370544 421.752502,263.980347 422.136658,263.352325 
	C425.369598,263.074463 428.197723,263.034454 431.025848,262.994415 
z"/>
<path fill="#FB622B" opacity="1.000000" stroke="none" 
	d="
M430.281952,266.837769 
	C430.167572,265.878296 430.383759,265.052429 430.816162,264.096222 
	C432.117279,265.205841 433.202179,266.445831 434.109985,267.911652 
	C432.826080,267.748779 431.719299,267.360077 430.281952,266.837769 
z"/>
<path fill="#FD7427" opacity="1.000000" stroke="none" 
	d="
M431.282104,271.336975 
	C430.960083,271.249237 430.529297,270.905396 430.049011,270.269287 
	C430.390778,270.344940 430.782043,270.712921 431.282104,271.336975 
z"/>
<path fill="#DC2A2F" opacity="1.000000" stroke="none" 
	d="
M435.368164,281.584717 
	C435.264587,281.531830 435.135132,281.633911 435.017822,281.920715 
	C434.982117,282.044617 435.294434,281.678864 435.368164,281.584717 
z"/>
<path fill="#9E6D31" opacity="1.000000" stroke="none" 
	d="
M25.249598,272.390442 
	C28.406620,272.788330 31.758041,273.457123 35.505970,274.157043 
	C35.902473,274.188110 35.980812,274.110504 36.010040,274.270538 
	C36.218018,274.662598 36.447838,274.819977 36.728733,274.902710 
	C37.504341,276.299225 38.279949,277.695770 39.055553,279.092285 
	C38.824661,279.353729 38.593765,279.615173 38.362873,279.876617 
	C34.056580,277.471527 29.750290,275.066437 25.249598,272.390442 
z"/>
<path fill="#9E6D31" opacity="1.000000" stroke="none" 
	d="
M38.227158,272.392944 
	C41.121925,272.731842 44.209442,273.344818 47.694504,273.954895 
	C48.092041,273.951965 48.045990,273.970398 48.160542,274.133057 
	C48.489773,274.507721 48.745220,274.642365 49.041443,274.699646 
	C50.053703,276.123688 51.065964,277.547760 52.078224,278.971802 
	C51.831135,279.274536 51.584045,279.577240 51.336956,279.879974 
	C47.031273,277.475647 42.725590,275.071350 38.227158,272.392944 
z"/>
<path fill="#DEC55E" opacity="1.000000" stroke="none" 
	d="
M48.900154,274.532532 
	C48.745220,274.642365 48.489773,274.507721 48.136841,274.126007 
	C48.297916,274.007355 48.551342,274.143707 48.900154,274.532532 
z"/>
<path fill="#DEC55E" opacity="1.000000" stroke="none" 
	d="
M36.621719,274.733337 
	C36.447838,274.819977 36.218018,274.662598 35.979801,274.224426 
	C36.142586,274.173950 36.340714,274.355835 36.621719,274.733337 
z"/>
<path fill="#9D181F" opacity="1.000000" stroke="none" 
	d="
M423.033081,253.007645 
	C422.996063,253.426270 422.959045,253.844910 422.900085,254.576721 
	C419.368896,254.525131 417.276062,252.373169 417.102875,249.079437 
	C416.783997,243.015137 416.953674,236.925156 416.959869,230.422806 
	C417.000000,229.999741 417.010101,229.986130 417.010101,229.986130 
	C421.230469,231.796112 421.222168,235.848740 421.884064,239.453186 
	C422.234406,241.361084 422.072479,243.363052 422.245850,246.138840 
	C422.577606,248.972641 422.805359,250.990143 423.033081,253.007645 
z"/>
<path fill="#F54531" opacity="1.000000" stroke="none" 
	d="
M429.929932,247.072021 
	C429.489716,247.380768 429.049530,247.689514 428.396942,248.169739 
	C428.133148,244.108658 428.229340,239.866898 427.966339,235.647522 
	C427.839813,233.618286 427.035370,231.631317 426.425964,229.056076 
	C426.557251,228.006012 426.800476,227.525070 427.043701,227.044128 
	C427.043701,227.044128 427.006531,227.013138 427.228943,226.821899 
	C427.639221,226.091003 427.827087,225.551376 428.014954,225.011719 
	C428.277435,224.771942 428.539948,224.532150 429.152161,223.806702 
	C430.324860,221.876328 431.147888,220.431595 432.142029,219.180176 
	C432.175659,219.979233 432.038177,220.584976 431.712067,221.500214 
	C431.737305,227.212982 431.894012,232.619354 432.190613,238.018051 
	C432.326752,240.495880 433.632843,241.192200 435.877747,240.243317 
	C435.948853,241.094238 435.978027,241.581741 435.901123,242.249084 
	C435.629395,242.657211 435.427979,242.847595 434.955872,243.125366 
	C434.481628,243.507706 434.242218,243.764771 434.015472,244.011414 
	C434.028137,244.000961 434.033539,244.033600 433.774384,243.952164 
	C432.320129,244.937836 431.125031,246.004929 429.929932,247.072021 
z"/>
<path fill="#FD7427" opacity="1.000000" stroke="none" 
	d="
M431.970917,218.986862 
	C431.147888,220.431595 430.324860,221.876328 429.305237,223.586777 
	C428.313873,220.359985 427.519104,216.867462 426.402283,212.765182 
	C424.747223,211.062546 423.414185,209.969666 421.942261,208.681320 
	C421.581085,208.245300 421.314575,208.073471 420.955200,207.736038 
	C420.906586,207.501724 420.828003,207.028961 420.903320,206.694336 
	C421.297699,205.538269 421.616730,204.716843 422.314087,203.941711 
	C425.172241,203.679108 427.652008,203.370209 430.328125,203.053650 
	C430.524414,203.045975 430.917145,203.035126 430.949677,203.461456 
	C431.007080,205.598495 431.031982,207.309189 431.018494,209.433380 
	C431.018372,211.231079 431.056610,212.615295 431.125488,214.361969 
	C431.427704,216.145233 431.699310,217.566040 431.970917,218.986862 
z"/>
<path fill="#EE2E34" opacity="1.000000" stroke="none" 
	d="
M421.003784,207.970337 
	C421.314575,208.073471 421.581085,208.245300 421.749695,209.007568 
	C421.149139,211.695267 420.602142,213.861237 420.055176,216.027206 
	C420.767700,218.429321 421.480194,220.831436 422.187866,223.217224 
	C418.697998,222.714447 416.557098,220.254593 413.004089,212.342194 
	C413.387390,210.715332 413.835602,209.442383 414.629730,208.441437 
	C415.382721,210.608185 415.789825,212.502945 416.425934,215.463455 
	C418.473297,212.112274 419.738525,210.041306 421.003784,207.970337 
z"/>
<path fill="#FB622B" opacity="1.000000" stroke="none" 
	d="
M430.971710,262.607635 
	C428.197723,263.034454 425.369598,263.074463 422.157684,263.059692 
	C422.359436,261.445374 422.944946,259.885895 423.805847,258.424255 
	C424.676147,259.195557 425.271118,259.868927 426.243469,260.969452 
	C426.574310,257.421082 426.823059,254.753006 427.071808,252.084930 
	C427.071808,252.084930 427.520020,251.943008 427.746185,251.876953 
	C428.954102,255.280869 429.935852,258.750854 430.971710,262.607635 
z"/>
<path fill="#CC232C" opacity="1.000000" stroke="none" 
	d="
M420.359680,216.117065 
	C420.602142,213.861237 421.149139,211.695267 421.888641,209.203064 
	C423.414185,209.969666 424.747223,211.062546 426.189301,212.473328 
	C425.386597,214.786163 424.474854,216.781097 423.513000,218.885651 
	C422.862793,218.274261 421.763519,217.240601 420.359680,216.117065 
z"/>
<path fill="#EE2E34" opacity="1.000000" stroke="none" 
	d="
M426.735352,251.969543 
	C426.823059,254.753006 426.574310,257.421082 426.243469,260.969452 
	C425.271118,259.868927 424.676147,259.195557 424.019104,258.189697 
	C423.784851,256.437531 423.612732,255.017868 423.236847,253.302917 
	C422.805359,250.990143 422.577606,248.972641 422.311768,246.598755 
	C423.648743,248.112976 425.023834,249.983566 426.735352,251.969543 
z"/>
<path fill="#CC232C" opacity="1.000000" stroke="none" 
	d="
M427.001221,224.998779 
	C426.554291,224.876434 426.084045,224.804520 425.669250,224.612686 
	C425.422821,224.498718 425.263763,224.195877 425.350189,223.475479 
	C425.851959,223.807678 426.353760,224.139862 426.927765,224.736023 
	C427.000000,225.000000 427.001221,224.998779 427.001221,224.998779 
z"/>
<path fill="#CC232C" opacity="1.000000" stroke="none" 
	d="
M426.742828,227.046661 
	C426.800476,227.525070 426.557251,228.006012 426.214569,228.736359 
	C425.688568,228.608292 425.262024,228.230804 424.835480,227.853317 
	C425.370972,227.585297 425.906464,227.317245 426.742828,227.046661 
z"/>
<path fill="#CC232C" opacity="1.000000" stroke="none" 
	d="
M427.760925,225.008316 
	C427.827087,225.551376 427.639221,226.091003 427.246094,226.833038 
	C427.028931,226.582840 427.016998,226.130219 427.003143,225.338196 
	C427.001221,224.998779 427.000000,225.000000 426.999390,225.000549 
	C427.168152,225.002380 427.337524,225.003632 427.760925,225.008316 
z"/>
<path fill="#9D181F" opacity="1.000000" stroke="none" 
	d="
M416.993286,230.004669 
	C416.986572,230.009583 416.737732,229.831467 416.737732,229.831467 
	C416.737732,229.831467 416.937866,229.839554 416.973999,229.912842 
	C417.010101,229.986130 417.000000,229.999741 416.993286,230.004669 
z"/>
<path fill="#9D181F" opacity="1.000000" stroke="none" 
	d="
M462.856018,115.309494 
	C463.525146,116.478806 464.039825,117.960922 464.762024,119.712196 
	C464.636475,124.359535 464.303345,128.737717 463.615509,133.633179 
	C462.218658,135.343933 461.190460,136.549927 460.131348,137.728149 
	C458.305573,139.759247 456.598633,141.931549 454.553375,143.713531 
	C453.770538,144.395615 451.829620,144.721771 451.072327,144.220062 
	C450.066376,143.553619 449.214783,141.936722 449.168488,140.695679 
	C449.084564,138.445877 449.644562,136.172043 449.936096,133.494049 
	C450.601685,129.393585 451.266968,125.707344 451.932251,122.021103 
	C458.105377,124.235970 460.842957,120.668839 462.856018,115.309494 
z"/>
<path fill="#CC232C" opacity="1.000000" stroke="none" 
	d="
M451.930725,121.557327 
	C451.266968,125.707344 450.601685,129.393585 449.575348,133.512329 
	C448.490356,133.966156 447.766449,133.987473 447.042511,134.008789 
	C446.545746,133.770340 446.048950,133.531876 445.410095,132.909760 
	C445.507538,132.007095 445.747070,131.488113 446.138916,130.622589 
	C450.111053,119.479759 450.110138,108.716255 446.014038,97.987915 
	C446.011383,97.238487 446.008698,96.489052 446.003296,95.370079 
	C446.000519,95.000534 445.990692,95.015892 445.990692,95.015892 
	C445.990692,95.015892 446.446106,95.097939 446.673462,95.137321 
	C450.703796,103.403008 452.635834,111.992302 451.930725,121.557327 
z"/>
<path fill="#EE2E34" opacity="1.000000" stroke="none" 
	d="
M435.190765,243.000107 
	C435.427979,242.847595 435.629395,242.657211 436.150482,242.208054 
	C436.674408,241.986160 436.842865,241.985153 437.095520,242.314697 
	C438.412659,244.813934 439.645630,246.982620 440.614075,249.046234 
	C437.209076,251.620575 437.366150,253.796890 441.637817,257.850098 
	C441.761322,255.221771 441.856323,253.199478 441.964966,250.763031 
	C441.665314,248.574020 441.352051,246.799164 441.039856,244.587250 
	C441.397522,241.115555 441.754120,238.080917 442.356079,234.970093 
	C442.661530,234.251556 442.721619,233.609177 442.833893,232.664444 
	C443.203400,231.619308 443.520721,230.876541 444.051819,229.944473 
	C445.171509,229.827469 446.077515,229.899780 446.983490,229.972076 
	C446.968872,233.697067 446.954285,237.422073 446.705383,241.458923 
	C446.182220,241.623947 445.902832,241.447647 445.598236,241.349899 
	C445.516602,241.323715 445.257904,241.529434 445.249268,241.641617 
	C444.800476,247.485947 444.369904,253.331696 443.937378,259.177277 
	C443.913788,259.480896 443.904999,259.784943 443.572479,260.448181 
	C441.149384,260.852600 439.064819,260.898224 436.980225,260.943878 
	C435.985870,258.597778 434.991486,256.251678 434.006287,253.065125 
	C434.021454,249.494308 434.027496,246.763962 434.033539,244.033600 
	C434.033539,244.033600 434.028137,244.000961 434.249817,243.889130 
	C434.711243,243.518250 434.951019,243.259171 435.190765,243.000107 
z"/>
<path fill="#EE2E34" opacity="1.000000" stroke="none" 
	d="
M449.996399,246.925354 
	C455.400513,250.123108 459.169922,248.631790 460.527924,242.596558 
	C460.956482,240.691910 460.860535,238.669235 461.256927,236.515564 
	C462.682434,238.857422 463.855652,241.384277 465.028870,243.911133 
	C465.351868,247.030594 465.926819,250.149109 465.938354,253.269714 
	C465.955261,257.853851 464.450073,258.650848 460.572113,256.354218 
	C456.604248,254.004333 452.707703,251.534042 448.406067,248.704285 
	C447.996002,247.861008 447.959778,247.429916 448.270111,246.994263 
	C449.076569,246.968262 449.536499,246.946808 449.996399,246.925354 
M458.525940,250.095261 
	C458.469391,250.349869 458.412842,250.604462 458.356262,250.859055 
	C458.486115,250.662216 458.615997,250.465363 458.525940,250.095261 
z"/>
<path fill="#C1202A" opacity="1.000000" stroke="none" 
	d="
M465.253296,243.617157 
	C463.855652,241.384277 462.682434,238.857422 461.267517,236.071533 
	C459.409607,228.764664 457.793396,221.716827 456.146912,214.279236 
	C459.072449,218.848602 462.184448,223.724091 464.905365,228.808884 
	C465.961578,230.782745 466.134094,233.229523 466.815948,235.842499 
	C466.441071,238.590469 465.959412,240.956818 465.253296,243.617157 
z"/>
<path fill="#EE2E34" opacity="1.000000" stroke="none" 
	d="
M455.996979,259.106201 
	C459.066101,259.791779 462.135223,260.477386 465.833282,261.303467 
	C465.939178,261.106079 466.602997,259.868439 467.978210,257.304504 
	C467.978210,261.744446 467.978210,264.895630 467.601135,268.516846 
	C465.787659,268.609192 464.351227,268.231506 462.849457,267.530212 
	C460.521698,264.506470 458.259338,261.806335 455.996979,259.106201 
z"/>
<path fill="#CC232C" opacity="1.000000" stroke="none" 
	d="
M455.677643,258.957520 
	C458.259338,261.806335 460.521698,264.506470 462.497314,267.549683 
	C460.834717,267.565704 459.458893,267.238617 457.912750,266.723022 
	C457.450836,266.363708 457.159271,266.192841 456.680511,266.005585 
	C456.493347,265.989197 456.120544,265.942047 455.899353,265.661682 
	C453.772736,263.581146 451.867249,261.780975 449.961761,259.980835 
	C451.760620,259.590179 453.559448,259.199493 455.677643,258.957520 
z"/>
<path fill="#FB622B" opacity="1.000000" stroke="none" 
	d="
M456.120544,265.942047 
	C456.120544,265.942047 456.493347,265.989197 456.853027,266.193939 
	C457.502869,266.569611 457.792969,266.740570 458.083069,266.911530 
	C459.458893,267.238617 460.834717,267.565704 462.562683,267.873291 
	C464.351227,268.231506 465.787659,268.609192 467.599304,268.967468 
	C468.312256,269.738770 468.649933,270.529419 468.678650,271.760254 
	C467.889160,273.181305 467.408661,274.162140 466.687134,275.008026 
	C465.980255,274.580353 465.514374,274.287628 465.048523,273.994873 
	C461.649170,268.964905 456.176636,268.020386 450.443787,266.574158 
	C450.038147,266.358887 449.996338,265.995605 450.430786,266.003937 
	C452.617004,265.988861 454.368774,265.965454 456.120544,265.942047 
z"/>
<path fill="#FB622B" opacity="1.000000" stroke="none" 
	d="
M447.923553,246.998810 
	C447.959778,247.429916 447.996002,247.861008 448.072632,248.613342 
	C446.865204,252.149246 445.617401,255.363937 444.153503,258.877930 
	C444.369904,253.331696 444.800476,247.485947 445.249268,241.641617 
	C445.257904,241.529434 445.516602,241.323715 445.598236,241.349899 
	C445.902832,241.447647 446.182220,241.623947 446.676331,241.924042 
	C446.881622,242.077286 446.913727,242.087662 446.911316,242.462067 
	C446.922852,243.583359 446.936798,244.330246 447.001587,245.348694 
	C447.342773,246.079773 447.633179,246.539291 447.923553,246.998810 
z"/>
<path fill="#EE2E34" opacity="1.000000" stroke="none" 
	d="
M455.899353,265.661682 
	C454.368774,265.965454 452.617004,265.988861 450.068604,265.993530 
	C447.875092,265.654053 446.478210,265.333344 445.081299,265.012634 
	C444.904816,265.008514 444.728363,265.004425 444.365112,264.701416 
	C444.825531,263.615326 445.472656,262.828156 446.119812,262.040955 
	C447.196686,261.399475 448.273590,260.757996 449.656128,260.048645 
	C451.867249,261.780975 453.772736,263.581146 455.899353,265.661682 
z"/>
<path fill="#CC232C" opacity="1.000000" stroke="none" 
	d="
M464.688385,274.082855 
	C465.514374,274.287628 465.980255,274.580353 466.763428,275.329712 
	C467.484894,276.829285 467.888977,277.872192 468.293060,278.915100 
	C466.413605,279.397614 464.534149,279.880157 462.333618,280.204712 
	C462.784424,278.088074 463.556335,276.129456 464.688385,274.082855 
z"/>
<path fill="#FD7427" opacity="1.000000" stroke="none" 
	d="
M445.884796,261.805481 
	C445.472656,262.828156 444.825531,263.615326 444.100372,264.700989 
	C441.979584,265.005402 439.936829,265.011353 437.458679,265.050415 
	C437.000702,263.979828 436.978149,262.876129 436.967896,261.358154 
	C439.064819,260.898224 441.149384,260.852600 443.586975,260.675964 
	C444.509888,260.886627 445.079865,261.228333 445.884796,261.805481 
z"/>
<path fill="#FD7427" opacity="1.000000" stroke="none" 
	d="
M468.450287,279.186890 
	C467.888977,277.872192 467.484894,276.829285 467.004456,275.464661 
	C467.408661,274.162140 467.889160,273.181305 468.695618,272.090454 
	C469.641754,275.419556 470.261993,278.858673 470.882233,282.297791 
	C470.386993,282.393036 469.891754,282.488312 469.396515,282.583588 
	C469.133514,281.541931 468.870514,280.500305 468.450287,279.186890 
z"/>
<path fill="#DC2A2F" opacity="1.000000" stroke="none" 
	d="
M470.651062,256.965271 
	C470.887848,259.844269 470.906586,262.878876 470.891846,266.345459 
	C470.239990,264.103210 469.621582,261.428986 469.028076,258.334778 
	C469.512970,257.650116 469.972992,257.385498 470.651062,256.965271 
z"/>
<path fill="#EE2E34" opacity="1.000000" stroke="none" 
	d="
M415.145905,207.088608 
	C411.542267,203.093582 413.118256,198.489670 413.644562,194.025803 
	C413.829712,192.455307 414.204651,190.907166 414.292725,189.039368 
	C415.356140,187.041550 416.619812,185.353195 418.276733,183.321777 
	C419.409607,182.630310 420.149231,182.281891 420.888885,181.933472 
	C422.423981,180.739624 423.959076,179.545761 425.924561,178.200134 
	C426.354919,178.048355 426.667053,178.081879 426.818756,178.292511 
	C427.236725,178.722900 427.502991,178.942642 427.814514,179.596649 
	C428.226379,185.765930 427.787323,191.313416 423.931580,195.814362 
	C421.897522,194.711716 420.486298,189.237808 418.011414,194.993622 
	C417.998138,195.003052 417.974823,195.026306 417.670868,194.908417 
	C412.714172,196.005798 415.338440,198.815536 416.015930,201.141357 
	C416.587311,203.102936 417.307465,205.021179 417.608582,206.963501 
	C416.552246,207.008469 415.849060,207.048538 415.145905,207.088608 
z"/>
<path fill="#FD7427" opacity="1.000000" stroke="none" 
	d="
M427.769257,179.162384 
	C427.502991,178.942642 427.236725,178.722900 427.077698,178.068024 
	C428.348206,176.750763 429.511414,175.868607 431.841095,174.101868 
	C429.222168,172.612015 427.704681,171.748749 426.187195,170.885498 
	C425.721161,167.531693 425.255157,164.177872 424.875336,160.399628 
	C426.732544,162.616119 428.503540,165.257050 430.665161,168.248260 
	C431.705994,170.079666 432.356262,171.560806 433.029663,173.334625 
	C433.086151,173.820129 433.119537,174.012970 433.077087,174.579315 
	C433.042786,175.964539 433.084320,176.976257 432.807953,178.039810 
	C431.925598,178.375259 431.361145,178.658875 430.419800,178.958862 
	C429.284973,179.037628 428.527130,179.100006 427.769257,179.162384 
z"/>
<path fill="#DC2A2F" opacity="1.000000" stroke="none" 
	d="
M420.559601,181.820923 
	C420.149231,182.281891 419.409607,182.630310 418.349915,183.000916 
	C416.708679,179.590515 415.387482,176.157928 413.975952,172.357910 
	C415.067566,172.399811 416.249542,172.809128 417.688507,173.135132 
	C418.707092,175.937332 419.468719,178.822861 420.559601,181.820923 
z"/>
<path fill="#F54531" opacity="1.000000" stroke="none" 
	d="
M426.146240,171.330978 
	C427.704681,171.748749 429.222168,172.612015 431.841095,174.101868 
	C429.511414,175.868607 428.348206,176.750763 426.926025,177.857391 
	C426.667053,178.081879 426.354919,178.048355 426.199463,178.027679 
	C426.064392,175.930161 426.084839,173.853302 426.146240,171.330978 
z"/>
<path fill="#FD7427" opacity="1.000000" stroke="none" 
	d="
M423.965759,158.246933 
	C424.264069,158.476608 424.618469,159.019852 424.983124,159.804321 
	C424.669525,159.550552 424.345703,159.055527 423.965759,158.246933 
z"/>
<path fill="#A91C25" opacity="1.000000" stroke="none" 
	d="
M445.872803,98.291634 
	C450.110138,108.716255 450.111053,119.479759 445.796417,130.483032 
	C445.179932,127.090492 445.058289,123.490997 444.946533,119.465775 
	C444.990906,113.080963 445.025452,107.121880 445.059998,101.162811 
	C445.283875,100.306992 445.507721,99.451172 445.872803,98.291634 
z"/>
<path fill="#DC2A2F" opacity="1.000000" stroke="none" 
	d="
M445.062561,101.593887 
	C445.025452,107.121880 444.990906,113.080963 444.774902,119.299904 
	C443.727875,119.372131 442.862274,119.184494 441.976410,118.981293 
	C441.956146,118.965721 441.915100,118.935341 441.915100,118.935341 
	C442.965118,113.298553 444.015137,107.661758 445.062561,101.593887 
z"/>
<path fill="#DC2A2F" opacity="1.000000" stroke="none" 
	d="
M440.293701,94.637665 
	C440.416656,94.480118 440.563080,94.441757 440.709534,94.403397 
	C440.578766,94.521210 440.447968,94.639023 440.293701,94.637665 
z"/>
<path fill="#DC2A2F" opacity="1.000000" stroke="none" 
	d="
M440.994629,119.992645 
	C441.113007,119.687920 441.291046,119.427193 441.719421,119.069580 
	C441.915100,118.935341 441.956146,118.965721 441.836243,119.173553 
	C441.507080,119.623573 441.265778,119.827919 440.992401,119.994431 
	C440.992401,119.994431 440.999603,119.999298 440.994629,119.992645 
z"/>
<path fill="#CC232C" opacity="1.000000" stroke="none" 
	d="
M446.007935,94.995392 
	C446.015350,94.990250 445.916840,94.902176 445.953766,94.959030 
	C445.990692,95.015892 446.000519,95.000534 446.007935,94.995392 
z"/>
<path fill="#A91C25" opacity="1.000000" stroke="none" 
	d="
M433.125854,177.987976 
	C433.084320,176.976257 433.042786,175.964539 433.260315,174.434006 
	C433.753296,173.706207 433.932770,173.457855 434.097321,173.178650 
	C434.136902,173.187164 434.212555,173.158295 434.212555,173.158295 
	C437.416443,172.189026 440.393097,171.077591 437.649445,165.538116 
	C437.477173,167.347900 437.353180,168.650696 437.229187,169.953491 
	C436.479614,169.481796 435.730072,169.010086 434.980499,168.538376 
	C434.381134,166.917633 433.781769,165.296890 433.148193,163.319183 
	C434.211060,161.469620 435.308075,159.977036 436.090363,158.912674 
	C437.326874,159.915680 439.194794,161.430878 441.510773,163.338440 
	C442.936493,166.853729 443.914185,169.976654 444.913391,173.521088 
	C445.281189,179.793015 445.775574,185.640991 445.871826,191.495529 
	C445.896484,192.995789 444.663666,194.516724 443.851685,195.714859 
	C441.214935,191.200287 438.735046,186.999023 436.132751,182.490540 
	C435.022064,180.782471 434.033783,179.381607 433.063934,177.997162 
	C433.082397,178.013580 433.125854,177.987976 433.125854,177.987976 
z"/>
<path fill="#CC232C" opacity="1.000000" stroke="none" 
	d="
M444.891907,173.099594 
	C443.914185,169.976654 442.936493,166.853729 441.889435,163.338623 
	C441.129578,160.174652 440.439087,157.402863 439.841736,154.391235 
	C440.090851,153.149704 440.246826,152.148056 440.603973,149.854324 
	C441.380341,151.798782 441.682617,152.555878 442.014648,154.001648 
	C442.757111,156.269135 443.176849,158.099289 444.259216,159.360962 
	C445.517212,160.827332 447.356018,161.795364 448.980804,163.365372 
	C449.688751,166.496948 450.358673,169.242859 450.702576,171.886383 
	C448.910736,169.788071 447.444946,167.792160 445.979156,165.796265 
	C445.658325,165.905716 445.337494,166.015152 445.016663,166.124603 
	C445.016663,168.413391 445.016663,170.702194 444.985321,173.017960 
	C444.953979,173.044937 444.891876,173.099594 444.891907,173.099594 
z"/>
<path fill="#A91C25" opacity="1.000000" stroke="none" 
	d="
M451.028564,171.988770 
	C450.358673,169.242859 449.688751,166.496948 449.280548,163.277618 
	C448.660645,160.201569 447.779053,157.598953 446.897461,154.996323 
	C446.894958,154.269424 446.892426,153.542542 446.921204,152.025650 
	C447.126770,147.476868 448.700256,143.309723 443.960693,140.985107 
	C444.961090,138.894379 445.961487,136.803665 447.002197,134.360870 
	C447.766449,133.987473 448.490356,133.966156 449.575043,133.926544 
	C449.644562,136.172043 449.084564,138.445877 449.168488,140.695679 
	C449.214783,141.936722 450.066376,143.553619 451.072327,144.220062 
	C451.829620,144.721771 453.770538,144.395615 454.553375,143.713531 
	C456.598633,141.931549 458.305573,139.759247 460.131348,137.728149 
	C461.190460,136.549927 462.218658,135.343933 463.589142,134.066467 
	C463.807220,135.480240 463.696960,136.977966 463.745972,138.740738 
	C462.899933,142.716202 461.894684,146.426636 460.542236,150.674942 
	C455.901398,158.303772 451.728882,165.421310 455.148804,174.205215 
	C458.634003,181.082611 458.091675,188.120941 455.994202,195.614166 
	C455.999786,196.006683 456.020782,195.981613 455.749634,195.963196 
	C455.297455,195.953506 455.116486,195.962204 454.566895,195.975449 
	C453.706909,195.993439 453.215576,196.006882 452.772827,195.659622 
	C452.847504,194.578247 452.873535,193.857605 453.071655,192.751221 
	C452.845703,186.911575 452.447693,181.457672 452.034576,175.645538 
	C451.683502,174.184372 451.347504,173.081421 451.006256,171.987595 
	C451.001007,171.996704 451.028564,171.988770 451.028564,171.988770 
z"/>
<path fill="#C1202A" opacity="1.000000" stroke="none" 
	d="
M440.918213,120.387756 
	C441.265778,119.827919 441.507080,119.623573 441.856506,119.189125 
	C442.862274,119.184494 443.727875,119.372131 444.765076,119.725632 
	C445.058289,123.490997 445.179932,127.090492 445.644104,130.829559 
	C445.747070,131.488113 445.507538,132.007095 445.161133,132.791580 
	C444.274994,134.229004 443.495697,135.400925 442.404388,137.042053 
	C438.869812,131.423706 439.412659,126.145111 440.918213,120.387756 
z"/>
<path fill="#C1202A" opacity="1.000000" stroke="none" 
	d="
M443.716461,141.241547 
	C448.700256,143.309723 447.126770,147.476868 446.918823,151.662201 
	C442.126953,149.360931 441.229309,146.575500 443.716461,141.241547 
z"/>
<path fill="#C1202A" opacity="1.000000" stroke="none" 
	d="
M446.693542,155.191528 
	C447.779053,157.598953 448.660645,160.201569 449.242493,162.891937 
	C447.356018,161.795364 445.517212,160.827332 444.259216,159.360962 
	C443.176849,158.099289 442.757111,156.269135 442.027344,154.316101 
	C443.503418,154.423462 444.996521,154.905090 446.693542,155.191528 
z"/>
<path fill="#A91C25" opacity="1.000000" stroke="none" 
	d="
M459.888062,187.207550 
	C463.063141,192.441452 462.206085,198.280746 460.990906,204.564774 
	C458.887390,206.275070 456.787994,207.561661 454.149261,208.622742 
	C452.365936,207.961807 451.122009,207.526352 449.840851,206.881119 
	C449.803650,206.671326 449.769165,206.246582 449.829956,205.857269 
	C449.900543,204.944443 449.910339,204.420944 449.950043,203.679642 
	C449.979950,203.461853 450.060547,203.029633 450.390869,202.952866 
	C452.465057,200.879745 454.208862,198.883392 455.970520,196.660751 
	C455.988342,196.434448 456.020782,195.981613 456.020782,195.981613 
	C456.020782,195.981613 455.999786,196.006683 455.992249,196.021729 
	C457.258942,193.217392 458.533173,190.397995 459.888062,187.207550 
z"/>
<path fill="#F54531" opacity="1.000000" stroke="none" 
	d="
M446.992493,229.642303 
	C446.077515,229.899780 445.171509,229.827469 443.754028,229.850311 
	C441.771149,228.966980 440.299744,227.988480 438.634369,226.726654 
	C434.649139,221.775146 435.500916,217.313034 439.430176,212.982361 
	C444.244812,212.892334 444.078491,215.981689 444.000488,219.394257 
	C444.165527,222.830933 441.324341,226.994720 447.036652,227.992523 
	C447.024933,228.432510 447.013245,228.872513 446.992493,229.642303 
z"/>
<path fill="#CC232C" opacity="1.000000" stroke="none" 
	d="
M450.097137,241.008804 
	C450.412323,238.579300 450.405365,236.044815 451.151184,233.755615 
	C451.685974,232.114197 453.227936,230.800888 454.320526,229.341202 
	C455.388397,230.627563 456.911133,231.761002 457.408173,233.239304 
	C458.017822,235.052719 458.042206,237.182648 457.841217,239.126266 
	C457.260956,244.738235 456.461334,245.220978 450.506226,243.602509 
	C450.097870,242.470215 450.097504,241.739502 450.097137,241.008804 
z"/>
<path fill="#EE2E34" opacity="1.000000" stroke="none" 
	d="
M447.319580,227.792313 
	C441.324341,226.994720 444.165527,222.830933 444.287109,219.207336 
	C445.136658,217.414673 445.696381,216.195740 446.558472,215.066193 
	C448.233368,216.770142 449.605927,218.384720 451.043854,220.246735 
	C451.154449,220.658722 451.199646,220.823242 451.244812,220.987762 
	C450.030731,223.189209 448.816620,225.390656 447.319580,227.792313 
z"/>
<path fill="#A91C25" opacity="1.000000" stroke="none" 
	d="
M451.508301,221.157928 
	C451.199646,220.823242 451.154449,220.658722 451.051758,219.823410 
	C451.057526,217.468567 451.120789,215.784500 451.495544,214.083252 
	C452.221710,214.026291 452.636383,213.986511 453.051086,213.946747 
	C454.660278,217.678223 456.269501,221.409714 457.878723,225.141190 
	C457.395630,225.372894 456.912506,225.604599 456.429382,225.836304 
	C454.876862,224.333572 453.324341,222.830841 451.508301,221.157928 
z"/>
<path fill="#C1202A" opacity="1.000000" stroke="none" 
	d="
M453.037750,213.570740 
	C452.636383,213.986511 452.221710,214.026291 451.436615,213.698929 
	C450.657043,211.863220 450.247864,210.394669 449.850891,208.619781 
	C449.868073,207.905960 449.873077,207.498428 449.878052,207.090912 
	C451.122009,207.526352 452.365936,207.961807 453.810303,208.672226 
	C453.681915,210.363037 453.353149,211.778870 453.037750,213.570740 
z"/>
<path fill="#EE2E34" opacity="1.000000" stroke="none" 
	d="
M449.763000,241.052734 
	C450.097504,241.739502 450.097870,242.470215 450.126465,243.564041 
	C450.119781,244.116409 450.084869,244.305634 449.633545,244.767181 
	C448.461670,245.052063 447.706238,245.064590 446.950775,245.077118 
	C446.936798,244.330246 446.922852,243.583359 446.926758,242.464783 
	C447.772736,241.760941 448.600769,241.428802 449.763000,241.052734 
z"/>
<path fill="#F54531" opacity="1.000000" stroke="none" 
	d="
M447.001587,245.348694 
	C447.706238,245.064590 448.461670,245.052063 449.593384,245.052979 
	C449.976013,245.479904 449.982452,245.893341 449.992615,246.616074 
	C449.536499,246.946808 449.076569,246.968262 448.270111,246.994263 
	C447.633179,246.539291 447.342773,246.079773 447.001587,245.348694 
z"/>
<path fill="#C1202A" opacity="1.000000" stroke="none" 
	d="
M455.492859,174.214294 
	C451.728882,165.421310 455.901398,158.303772 460.504395,151.075256 
	C460.179077,157.939224 459.643524,164.952988 458.784546,171.926895 
	C458.676971,172.800156 456.861206,173.463028 455.492859,174.214294 
z"/>
<path fill="#F54531" opacity="1.000000" stroke="none" 
	d="
M433.006531,173.041962 
	C432.356262,171.560806 431.705994,170.079666 431.007324,168.312317 
	C431.968781,169.497864 432.978668,170.969635 434.100555,172.799850 
	C434.212555,173.158295 434.136902,173.187164 433.835449,173.136932 
	C433.358185,173.071793 433.182373,173.056870 433.006531,173.041962 
z"/>
<path fill="#CC232C" opacity="1.000000" stroke="none" 
	d="
M415.090118,207.293900 
	C415.849060,207.048538 416.552246,207.008469 417.968689,206.980682 
	C419.397308,207.004959 420.112671,207.016968 420.828003,207.028961 
	C420.828003,207.028961 420.906586,207.501724 420.955170,207.736023 
	C419.738525,210.041306 418.473297,212.112274 416.425934,215.463455 
	C415.789825,212.502945 415.382721,210.608185 414.956909,208.313538 
	C414.938202,207.913651 415.034332,207.499191 415.090118,207.293900 
z"/>
<path fill="#FB622B" opacity="1.000000" stroke="none" 
	d="
M421.692749,264.930420 
	C421.798492,265.002686 421.803284,265.244629 421.785553,265.849701 
	C421.705933,265.841888 421.648865,265.470978 421.692749,264.930420 
z"/>
<path fill="#DC2A2F" opacity="1.000000" stroke="none" 
	d="
M445.048218,265.406067 
	C446.478210,265.333344 447.875092,265.654053 449.634155,265.985168 
	C449.996338,265.995605 450.038147,266.358887 450.046143,266.539734 
	C449.688751,268.267761 449.323364,269.814941 448.890930,271.756287 
	C445.544983,271.238495 444.736969,268.844696 445.048218,265.406067 
z"/>
<path fill="#FB622B" opacity="1.000000" stroke="none" 
	d="
M433.774384,243.952164 
	C434.027496,246.763962 434.021454,249.494308 433.982880,252.689819 
	C433.418732,254.419464 432.887146,255.683960 432.355530,256.948425 
	C432.042145,256.948090 431.728760,256.947754 431.415344,256.947418 
	C430.926483,253.928955 430.437592,250.910477 429.939331,247.482025 
	C431.125031,246.004929 432.320129,244.937836 433.774384,243.952164 
z"/>
<path fill="#EE2E34" opacity="1.000000" stroke="none" 
	d="
M439.038452,212.970154 
	C435.500916,217.313034 434.649139,221.775146 438.658447,227.087433 
	C438.190460,228.794220 437.504395,229.856918 436.611023,230.661377 
	C434.902679,227.332321 433.401672,224.261520 431.900696,221.190704 
	C432.038177,220.584976 432.175659,219.979233 432.142029,219.180176 
	C431.699310,217.566040 431.427704,216.145233 431.518921,214.371292 
	C433.469696,213.128876 435.057587,212.239594 436.645508,211.350281 
	C435.103851,210.565231 433.571167,209.761444 432.011627,209.013702 
	C431.753662,208.890030 431.378082,209.011627 431.056854,209.019882 
	C431.031982,207.309189 431.007080,205.598495 430.978455,203.034470 
	C431.129120,199.993195 431.283539,197.805252 431.437958,195.617310 
	C431.984589,195.463730 432.531219,195.310165 433.077850,195.156586 
	C434.748505,198.066177 436.419159,200.975769 437.873352,204.144745 
	C435.558685,206.522232 435.988037,207.731537 439.106262,208.321762 
	C439.181610,210.067780 439.110016,211.518967 439.038452,212.970154 
z"/>
<path fill="#A91C25" opacity="1.000000" stroke="none" 
	d="
M431.712036,221.500229 
	C433.401672,224.261520 434.902679,227.332321 436.654633,231.094086 
	C436.549011,234.483322 436.192413,237.181595 435.835846,239.879883 
	C433.632843,241.192200 432.326752,240.495880 432.190613,238.018051 
	C431.894012,232.619354 431.737305,227.212982 431.712036,221.500229 
z"/>
<path fill="#FD7427" opacity="1.000000" stroke="none" 
	d="
M435.877747,240.243317 
	C436.192413,237.181595 436.549011,234.483322 436.861938,231.352325 
	C437.504395,229.856918 438.190460,228.794220 438.852417,227.370743 
	C440.299744,227.988480 441.771149,228.966980 443.540314,230.039627 
	C443.520721,230.876541 443.203400,231.619308 442.669556,232.890671 
	C442.338928,233.961609 442.224823,234.503937 442.110718,235.046280 
	C441.754120,238.080917 441.397522,241.115555 440.797729,244.366104 
	C439.373444,243.716064 438.192383,242.850113 437.011322,241.984161 
	C436.842865,241.985153 436.674408,241.986160 436.256561,242.028198 
	C435.978027,241.581741 435.948853,241.094238 435.877747,240.243317 
z"/>
<path fill="#FB622B" opacity="1.000000" stroke="none" 
	d="
M434.955872,243.125366 
	C434.951019,243.259171 434.711243,243.518250 434.237152,243.899582 
	C434.242218,243.764771 434.481628,243.507706 434.955872,243.125366 
z"/>
<path fill="#FB622B" opacity="1.000000" stroke="none" 
	d="
M438.089813,203.885345 
	C436.419159,200.975769 434.748505,198.066177 433.077850,195.156586 
	C432.531219,195.310165 431.984589,195.463730 431.437958,195.617310 
	C431.283539,197.805252 431.129120,199.993195 430.945923,202.608124 
	C430.917145,203.035126 430.524414,203.045975 430.296326,202.611908 
	C429.914185,199.713013 429.760101,197.248199 429.611389,194.869110 
	C427.349213,195.716141 425.734833,196.320602 424.113403,196.721054 
	C424.106354,196.517044 424.117584,196.108948 424.117584,196.108948 
	C427.787323,191.313416 428.226379,185.765930 427.814514,179.596649 
	C428.527130,179.100006 429.284973,179.037628 430.489319,179.406006 
	C431.037170,182.225754 431.138519,184.614716 431.221527,187.379852 
	C431.272736,191.176605 432.460052,193.863846 436.162476,195.300476 
	C438.567413,197.384369 440.782501,199.193298 442.998779,201.000809 
	C443.000000,200.999390 443.005066,200.994919 442.678345,200.942474 
	C439.160767,199.369751 439.168579,202.400558 438.089813,203.885345 
z"/>
<path fill="#DC2A2F" opacity="1.000000" stroke="none" 
	d="
M423.931580,195.814362 
	C424.117584,196.108948 424.106354,196.517044 423.936035,197.048950 
	C423.155762,199.685699 422.545746,201.790558 421.935760,203.895416 
	C421.616730,204.716843 421.297699,205.538269 420.903320,206.694336 
	C420.112671,207.016968 419.397308,207.004959 418.321899,206.975784 
	C417.307465,205.021179 416.587311,203.102936 416.015930,201.141357 
	C415.338440,198.815536 412.714172,196.005798 417.698517,195.073700 
	C418.202271,195.481018 418.374420,195.605164 418.546600,195.729309 
	C418.372620,195.480927 418.198639,195.232559 418.024658,194.984177 
	C420.486298,189.237808 421.897522,194.711716 423.931580,195.814362 
z"/>
<path fill="#F54531" opacity="1.000000" stroke="none" 
	d="
M422.314087,203.941711 
	C422.545746,201.790558 423.155762,199.685699 423.943115,197.252960 
	C425.734833,196.320602 427.349213,195.716141 429.611389,194.869110 
	C429.760101,197.248199 429.914185,199.713013 430.100037,202.619568 
	C427.652008,203.370209 425.172241,203.679108 422.314087,203.941711 
z"/>
<path fill="#CC232C" opacity="1.000000" stroke="none" 
	d="
M431.018494,209.433380 
	C431.378082,209.011627 431.753662,208.890030 432.011627,209.013702 
	C433.571167,209.761444 435.103851,210.565231 436.645508,211.350281 
	C435.057587,212.239594 433.469696,213.128876 431.488312,214.008850 
	C431.056610,212.615295 431.018372,211.231079 431.018494,209.433380 
z"/>
<path fill="#C1202A" opacity="1.000000" stroke="none" 
	d="
M441.951355,251.177200 
	C441.856323,253.199478 441.761322,255.221771 441.637817,257.850098 
	C437.366150,253.796890 437.209076,251.620575 440.695129,249.322571 
	C441.344299,250.195038 441.647797,250.686127 441.951355,251.177200 
z"/>
<path fill="#F54531" opacity="1.000000" stroke="none" 
	d="
M441.964935,250.763031 
	C441.647797,250.686127 441.344299,250.195038 440.959717,249.427628 
	C439.645630,246.982620 438.412659,244.813934 437.095520,242.314697 
	C438.192383,242.850113 439.373444,243.716064 440.796631,244.803162 
	C441.352051,246.799164 441.665314,248.574020 441.964935,250.763031 
z"/>
<path fill="#F54531" opacity="1.000000" stroke="none" 
	d="
M442.356079,234.970093 
	C442.224823,234.503937 442.338928,233.961609 442.617371,233.193039 
	C442.721619,233.609177 442.661530,234.251556 442.356079,234.970093 
z"/>
<path fill="#F54531" opacity="1.000000" stroke="none" 
	d="
M458.635925,250.181885 
	C458.615997,250.465363 458.486115,250.662216 458.356262,250.859070 
	C458.412842,250.604462 458.469391,250.349869 458.635925,250.181885 
z"/>
<path fill="#EE2E34" opacity="1.000000" stroke="none" 
	d="
M457.912750,266.723022 
	C457.792969,266.740570 457.502869,266.569611 457.040222,266.210327 
	C457.159271,266.192841 457.450836,266.363708 457.912750,266.723022 
z"/>
<path fill="#EE2E34" opacity="1.000000" stroke="none" 
	d="
M442.997559,201.002228 
	C440.782501,199.193298 438.567413,197.384369 436.243591,194.919647 
	C436.345398,192.491684 437.011353,190.625381 436.668762,188.967499 
	C436.018494,185.820816 434.325500,184.116028 431.239899,187.003677 
	C431.138519,184.614716 431.037170,182.225754 430.866272,179.389648 
	C431.361145,178.658875 431.925598,178.375259 432.807953,178.039810 
	C433.125854,177.987976 433.082397,178.013580 433.057251,178.344971 
	C434.106476,180.050140 435.180847,181.423935 436.255188,182.797745 
	C438.735046,186.999023 441.214935,191.200287 443.925903,196.019562 
	C445.954620,197.643204 446.788025,202.907211 450.207062,197.949768 
	C450.657440,197.964417 450.837372,197.975494 450.995758,198.354706 
	C450.669678,200.158463 450.365112,201.594040 450.060547,203.029633 
	C450.060547,203.029633 449.979950,203.461853 449.650024,203.720673 
	C448.917755,204.024933 448.515411,204.070404 447.811310,203.932556 
	C446.005585,202.833572 444.501556,201.917892 442.997559,201.002228 
z"/>
<path fill="#DC2A2F" opacity="1.000000" stroke="none" 
	d="
M433.029663,173.334625 
	C433.182373,173.056870 433.358185,173.071793 433.795837,173.128418 
	C433.932770,173.457855 433.753296,173.706207 433.336121,174.060516 
	C433.119537,174.012970 433.086151,173.820129 433.029663,173.334625 
z"/>
<path fill="#CC232C" opacity="1.000000" stroke="none" 
	d="
M449.936646,197.946198 
	C446.788025,202.907211 445.954620,197.643204 444.082794,196.332855 
	C444.663666,194.516724 445.896484,192.995789 445.871826,191.495529 
	C445.775574,185.640991 445.281189,179.793015 444.913391,173.521088 
	C444.891876,173.099594 444.953979,173.044937 445.217621,173.301697 
	C446.323212,179.582565 447.077057,185.621017 448.054169,191.623123 
	C448.404602,193.775909 449.293488,195.841049 449.936646,197.946198 
z"/>
<path fill="#F54531" opacity="1.000000" stroke="none" 
	d="
M436.132782,182.490540 
	C435.180847,181.423935 434.106476,180.050140 433.038788,178.328552 
	C434.033783,179.381607 435.022064,180.782471 436.132782,182.490540 
z"/>
<path fill="#C1202A" opacity="1.000000" stroke="none" 
	d="
M450.207062,197.949768 
	C449.293488,195.841049 448.404602,193.775909 448.054169,191.623123 
	C447.077057,185.621017 446.323212,179.582565 445.248962,173.274719 
	C445.016663,170.702194 445.016663,168.413391 445.016663,166.124603 
	C445.337494,166.015152 445.658325,165.905716 445.979156,165.796265 
	C447.444946,167.792160 448.910736,169.788071 450.702545,171.886383 
	C451.028564,171.988770 451.001007,171.996704 451.004700,172.348953 
	C451.355499,173.802048 451.702576,174.902893 452.049652,176.003754 
	C452.447693,181.457672 452.845703,186.911575 452.750366,192.864822 
	C451.832764,194.919388 451.408508,196.474625 450.991333,198.018417 
	C450.998444,198.006973 451.017303,197.986557 451.017303,197.986557 
	C450.837372,197.975494 450.657440,197.964417 450.207062,197.949768 
z"/>
<path fill="#C1202A" opacity="1.000000" stroke="none" 
	d="
M450.390869,202.952866 
	C450.365112,201.594040 450.669678,200.158463 450.995758,198.354706 
	C451.017303,197.986557 450.998444,198.006973 451.193207,197.838455 
	C451.833405,197.120071 452.278809,196.570206 452.724213,196.020340 
	C453.215576,196.006882 453.706909,195.993439 454.719055,196.148666 
	C455.448181,196.543900 455.685791,196.733795 455.952667,196.887054 
	C454.208862,198.883392 452.465057,200.879745 450.390869,202.952866 
z"/>
<path fill="#EE2E34" opacity="1.000000" stroke="none" 
	d="
M452.772827,195.659622 
	C452.278809,196.570206 451.833405,197.120071 451.186096,197.849899 
	C451.408508,196.474625 451.832764,194.919388 452.578278,193.250549 
	C452.873535,193.857605 452.847504,194.578247 452.772827,195.659622 
z"/>
<path fill="#CC232C" opacity="1.000000" stroke="none" 
	d="
M452.034576,175.645538 
	C451.702576,174.902893 451.355499,173.802048 451.009949,172.339844 
	C451.347504,173.081421 451.683502,174.184372 452.034576,175.645538 
z"/>
<path fill="#F54531" opacity="1.000000" stroke="none" 
	d="
M455.970520,196.660736 
	C455.685791,196.733795 455.448181,196.543900 455.087708,196.144119 
	C455.116486,195.962204 455.297455,195.953506 455.749634,195.963196 
	C456.020782,195.981613 455.988342,196.434448 455.970520,196.660736 
z"/>
<path fill="#EE2E34" opacity="1.000000" stroke="none" 
	d="
M449.840881,206.881119 
	C449.873077,207.498428 449.868073,207.905960 449.495056,208.635498 
	C448.406647,208.959076 447.686310,208.960617 446.975800,208.626038 
	C447.359344,207.502884 447.733032,206.715851 448.387939,205.963943 
	C449.035828,206.081573 449.402496,206.164078 449.769165,206.246582 
	C449.769165,206.246582 449.803650,206.671326 449.840881,206.881119 
z"/>
<path fill="#C1202A" opacity="1.000000" stroke="none" 
	d="
M449.829956,205.857269 
	C449.402496,206.164078 449.035828,206.081573 448.376709,205.662048 
	C448.093872,204.921982 448.103455,204.518921 448.113037,204.115875 
	C448.515411,204.070404 448.917755,204.024933 449.620117,203.938446 
	C449.910339,204.420944 449.900543,204.944443 449.829956,205.857269 
z"/>
<path fill="#FB622B" opacity="1.000000" stroke="none" 
	d="
M447.811340,203.932556 
	C448.103455,204.518921 448.093872,204.921982 448.095520,205.626923 
	C447.733032,206.715851 447.359344,207.502884 446.775146,208.881088 
	C446.461761,211.307114 446.358917,213.141968 446.256104,214.976807 
	C445.696381,216.195740 445.136658,217.414673 444.290314,218.820526 
	C444.078491,215.981689 444.244812,212.892334 439.430176,212.982361 
	C439.110016,211.518967 439.181610,210.067780 439.127869,208.044891 
	C440.135162,207.417908 441.267700,207.362625 443.005066,207.277817 
	C443.005066,205.420639 443.005066,203.207779 443.005066,200.994919 
	C443.005066,200.994919 443.000000,200.999390 442.998779,201.000809 
	C444.501556,201.917892 446.005585,202.833572 447.811340,203.932556 
z"/>
<path fill="#DC2A2F" opacity="1.000000" stroke="none" 
	d="
M446.558441,215.066193 
	C446.358917,213.141968 446.461761,211.307114 446.765259,209.217224 
	C447.686310,208.960617 448.406647,208.959076 449.482849,208.941803 
	C450.247864,210.394669 450.657043,211.863220 451.125153,213.716110 
	C451.120789,215.784500 451.057526,217.468567 450.986389,219.575958 
	C449.605927,218.384720 448.233368,216.770142 446.558441,215.066193 
z"/>
<path fill="#F54531" opacity="1.000000" stroke="none" 
	d="
M442.678345,200.942474 
	C443.005066,203.207779 443.005066,205.420639 443.005066,207.277817 
	C441.267700,207.362625 440.135162,207.417908 438.980988,207.750061 
	C435.988037,207.731537 435.558685,206.522232 437.873352,204.144745 
	C439.168579,202.400558 439.160767,199.369751 442.678345,200.942474 
z"/>
<path fill="#CC232C" opacity="1.000000" stroke="none" 
	d="
M431.221527,187.379852 
	C434.325500,184.116028 436.018494,185.820816 436.668762,188.967499 
	C437.011353,190.625381 436.345398,192.491684 436.053711,194.644714 
	C432.460052,193.863846 431.272736,191.176605 431.221527,187.379852 
z"/>
<path fill="#EE2E34" opacity="1.000000" stroke="none" 
	d="
M418.011414,194.993622 
	C418.198639,195.232559 418.372620,195.480927 418.546600,195.729309 
	C418.374420,195.605164 418.202271,195.481018 418.002472,195.191589 
	C417.974823,195.026306 417.998138,195.003052 418.011414,194.993622 
z"/>
</svg>